<?xml version="1.0" encoding="UTF-8" standalone="no"?>
<!-- Created with Inkscape (http://www.inkscape.org/) -->

<svg
   width="116.88953mm"
   height="100.10332mm"
   viewBox="0 0 116.88953 100.10333"
   version="1.1"
   id="svg3900"
   inkscape:version="1.2.2 (b0a8486541, 2022-12-01)"
   sodipodi:docname="estimation1.svg"
   inkscape:export-filename="estimation1.png"
   inkscape:export-xdpi="300"
   inkscape:export-ydpi="300"
   xmlns:inkscape="http://www.inkscape.org/namespaces/inkscape"
   xmlns:sodipodi="http://sodipodi.sourceforge.net/DTD/sodipodi-0.dtd"
   xmlns="http://www.w3.org/2000/svg"
   xmlns:svg="http://www.w3.org/2000/svg">
  <sodipodi:namedview
     id="namedview3902"
     pagecolor="#ffffff"
     bordercolor="#000000"
     borderopacity="0.25"
     inkscape:showpageshadow="2"
     inkscape:pageopacity="0.0"
     inkscape:pagecheckerboard="0"
     inkscape:deskcolor="#d1d1d1"
     inkscape:document-units="mm"
     showgrid="false"
     inkscape:zoom="2"
     inkscape:cx="148.25"
     inkscape:cy="225.5"
     inkscape:window-width="2560"
     inkscape:window-height="1339"
     inkscape:window-x="0"
     inkscape:window-y="32"
     inkscape:window-maximized="1"
     inkscape:current-layer="layer1" />
  <defs
     id="defs3897">
    <marker
       style="overflow:visible"
       id="marker4410"
       refX="0"
       refY="0"
       orient="auto-start-reverse"
       inkscape:stockid="TriangleStart"
       markerWidth="5.3244081"
       markerHeight="6.155385"
       viewBox="0 0 5.3244081 6.1553851"
       inkscape:isstock="true"
       inkscape:collect="always"
       preserveAspectRatio="xMidYMid">
      <path
         transform="scale(0.5)"
         style="fill:context-stroke;fill-rule:evenodd;stroke:context-stroke;stroke-width:1pt"
         d="M 5.77,0 -2.88,5 V -5 Z"
         id="path4408" />
    </marker>
    <marker
       style="overflow:visible"
       id="TriangleStart"
       refX="0"
       refY="0"
       orient="auto-start-reverse"
       inkscape:stockid="TriangleStart"
       markerWidth="5.3244081"
       markerHeight="6.155385"
       viewBox="0 0 5.3244081 6.1553851"
       inkscape:isstock="true"
       inkscape:collect="always"
       preserveAspectRatio="xMidYMid">
      <path
         transform="scale(0.5)"
         style="fill:context-stroke;fill-rule:evenodd;stroke:context-stroke;stroke-width:1pt"
         d="M 5.77,0 -2.88,5 V -5 Z"
         id="path135" />
    </marker>
    <rect
       x="70.824097"
       y="302.5874"
       width="40.594849"
       height="24.96817"
       id="rect7372" />
    <rect
       x="70.824097"
       y="302.5874"
       width="40.594849"
       height="24.96817"
       id="rect7372-1" />
    <rect
       x="70.824097"
       y="302.5874"
       width="40.594849"
       height="24.96817"
       id="rect7372-7" />
    <clipPath
       id="clipPath7493">
      <path
         d="M 0,0 H 13 V 11.953125 H 0 Z m 0,0"
         id="path8039" />
    </clipPath>
    <clipPath
       id="clipPath1824">
      <path
         d="m 20,0 h 4 v 11.953125 h -4 z m 0,0"
         id="path5359" />
    </clipPath>
    <clipPath
       id="clipPath5984">
      <path
         d="M 0,0 H 13 V 11.953125 H 0 Z m 0,0"
         id="path1494" />
    </clipPath>
    <clipPath
       id="clipPath2510">
      <path
         d="m 19,0 h 4 v 11.953125 h -4 z m 0,0"
         id="path7995" />
    </clipPath>
    <clipPath
       id="clipPath7279">
      <path
         d="M 0,0 H 13 V 11.953125 H 0 Z m 0,0"
         id="path5658" />
    </clipPath>
    <clipPath
       id="clipPath6356">
      <path
         d="m 19,0 h 4 v 11.953125 h -4 z m 0,0"
         id="path9726" />
    </clipPath>
    <clipPath
       id="clipPath9874">
      <path
         d="M 0,0 H 6 V 5.148438 H 0 Z m 0,0"
         id="path6588" />
    </clipPath>
    <clipPath
       id="clipPath1302">
      <path
         d="M 0,0 H 4.976562 V 8.300781 H 0 Z m 0,0"
         id="path9528" />
    </clipPath>
    <clipPath
       id="clipPath7618">
      <path
         d="M 0,0 H 5 V 5.148438 H 0 Z m 0,0"
         id="path1210" />
    </clipPath>
    <clipPath
       id="clipPath1101">
      <path
         d="m 7,0 h 4 V 6.941406 H 7 Z m 0,0"
         id="path2989" />
    </clipPath>
    <clipPath
       id="clipPath1661">
      <path
         d="m 7,0 h 4 V 6.941406 H 7 Z m 0,0"
         id="path4761" />
    </clipPath>
    <clipPath
       id="clipPath3775">
      <path
         d="m 7,0 h 4 V 6.941406 H 7 Z m 0,0"
         id="path6206" />
    </clipPath>
    <clipPath
       id="clipPath4156">
      <path
         d="M 0,0 H 13 V 11.953125 H 0 Z m 0,0"
         id="path7182" />
    </clipPath>
    <clipPath
       id="clipPath2805">
      <path
         d="m 26,0 h 3 v 11.953125 h -3 z m 0,0"
         id="path7346" />
    </clipPath>
    <clipPath
       id="clipPath9710">
      <path
         d="M 0,0 H 13 V 11.953125 H 0 Z m 0,0"
         id="path5480" />
    </clipPath>
    <clipPath
       id="clipPath2065">
      <path
         d="m 26,0 h 3 v 11.953125 h -3 z m 0,0"
         id="path5166" />
    </clipPath>
    <clipPath
       id="clipPath8451">
      <path
         d="M 0,0 H 13 V 11.953125 H 0 Z m 0,0"
         id="path5334" />
    </clipPath>
    <clipPath
       id="clipPath7606">
      <path
         d="m 26,0 h 3 v 11.953125 h -3 z m 0,0"
         id="path2164" />
    </clipPath>
    <marker
       style="overflow:visible"
       id="TriangleStart-1"
       refX="0"
       refY="0"
       orient="auto-start-reverse"
       inkscape:stockid="TriangleStart"
       markerWidth="5.3244081"
       markerHeight="6.155385"
       viewBox="0 0 5.3244081 6.1553851"
       inkscape:isstock="true"
       inkscape:collect="always"
       preserveAspectRatio="xMidYMid">
      <path
         transform="scale(0.5)"
         style="fill:context-stroke;fill-rule:evenodd;stroke:context-stroke;stroke-width:1pt"
         d="M 5.77,0 -2.88,5 V -5 Z"
         id="path135-2" />
    </marker>
    <marker
       style="overflow:visible"
       id="marker4410-7"
       refX="0"
       refY="0"
       orient="auto-start-reverse"
       inkscape:stockid="TriangleStart"
       markerWidth="5.3244081"
       markerHeight="6.155385"
       viewBox="0 0 5.3244081 6.1553851"
       inkscape:isstock="true"
       inkscape:collect="always"
       preserveAspectRatio="xMidYMid">
      <path
         transform="scale(0.5)"
         style="fill:context-stroke;fill-rule:evenodd;stroke:context-stroke;stroke-width:1pt"
         d="M 5.77,0 -2.88,5 V -5 Z"
         id="path4408-0" />
    </marker>
    <marker
       style="overflow:visible"
       id="TriangleStart-3"
       refX="0"
       refY="0"
       orient="auto-start-reverse"
       inkscape:stockid="TriangleStart"
       markerWidth="5.3244081"
       markerHeight="6.155385"
       viewBox="0 0 5.3244081 6.1553851"
       inkscape:isstock="true"
       inkscape:collect="always"
       preserveAspectRatio="xMidYMid">
      <path
         transform="scale(0.5)"
         style="fill:context-stroke;fill-rule:evenodd;stroke:context-stroke;stroke-width:1pt"
         d="M 5.77,0 -2.88,5 V -5 Z"
         id="path135-6" />
    </marker>
    <marker
       style="overflow:visible"
       id="marker4410-0"
       refX="0"
       refY="0"
       orient="auto-start-reverse"
       inkscape:stockid="TriangleStart"
       markerWidth="5.3244081"
       markerHeight="6.155385"
       viewBox="0 0 5.3244081 6.1553851"
       inkscape:isstock="true"
       inkscape:collect="always"
       preserveAspectRatio="xMidYMid">
      <path
         transform="scale(0.5)"
         style="fill:context-stroke;fill-rule:evenodd;stroke:context-stroke;stroke-width:1pt"
         d="M 5.77,0 -2.88,5 V -5 Z"
         id="path4408-6" />
    </marker>
  </defs>
  <g
     inkscape:label="Layer 1"
     inkscape:groupmode="layer"
     id="layer1"
     transform="translate(14.9684, 2.86272)">
    <path
       style="fill:none;stroke:#423f3f;stroke-width:0.458611;stroke-linecap:butt;stroke-linejoin:round;stroke-miterlimit:10;stroke-opacity:1"
       d="M 36.794819,66.545413 H 37.75531"
       id="path3328" />
    <path
       style="fill:none;stroke:#423f3f;stroke-width:0.458611;stroke-linecap:butt;stroke-linejoin:round;stroke-miterlimit:10;stroke-opacity:1"
       d="M 36.794819,13.681115 H 37.75531"
       id="path3330" />
    <path
       style="fill:none;stroke:#423f3f;stroke-width:0.352778;stroke-linecap:square;stroke-linejoin:miter;stroke-miterlimit:10;stroke-opacity:1"
       d="M 36.794819,66.545413 V 13.773444"
       id="path3332" />
    <g
       style="fill:#211e1e;fill-opacity:1"
       id="g3338"
       transform="matrix(0.35277777,0,0,0.35277777,-179.94306,-30.882371)">
      <g
         id="use3334"
         transform="translate(504.40579,103.1289)">
        <path
           style="stroke:none"
           d="m 13.5,-19.09375 c 0,-1.078125 0,-1.515625 3,-1.515625 h 1.046875 V -21.59375 C 16.40625,-21.5 13.5,-21.5 12.203125,-21.5 c -1.296875,0 -4.234375,0 -5.375,-0.09375 v 0.984375 H 7.875 c 3,0 3,0.40625 3,1.515625 V -5.0625 c -4.140625,-1.09375 -4.296875,-5.96875 -4.296875,-8.03125 -0.03125,-3.8125 -1.421875,-4.421875 -2.8125,-4.421875 H 2.59375 c -0.46875,0 -0.796875,0 -0.796875,0.359375 0,0.15625 0.09375,0.3125 0.296875,0.34375 1.03125,0.125 1.828125,0.5625 1.859375,4.296875 0,0.71875 0.09375,3.21875 1.609375,5.34375 1.234375,1.703125 3.15625,2.625 5.3125,2.90625 V -2.5 c 0,1.078125 0,1.515625 -3,1.515625 H 6.828125 V 0 c 1.140625,-0.09375 4.046875,-0.09375 5.34375,-0.09375 1.296875,0 4.234375,0 5.375,0.09375 V -0.984375 H 16.5 c -3,0 -3,-0.40625 -3,-1.515625 v -1.765625 c 2.265625,-0.28125 4.203125,-1.234375 5.4375,-2.875 1.640625,-2.25 1.671875,-4.75 1.671875,-6.140625 0,-0.5 0.03125,-3.3125 1.734375,-3.53125 0.1875,-0.03125 0.421875,-0.0625 0.421875,-0.34375 0,-0.359375 -0.265625,-0.359375 -0.765625,-0.359375 h -1.203125 c -1.234375,0 -2.78125,0.21875 -2.8125,4.8125 C 17.953125,-9.234375 16.90625,-5.875 13.5,-5.0625 Z m 0,0"
           id="path4113" />
      </g>
      <g
         id="use3336"
         transform="translate(528.96912,103.1289)">
        <path
           style="stroke:none"
           d="m 10.46875,7.59375 c 0,-0.109375 0,-0.171875 -0.546875,-0.703125 C 5.96875,2.90625 4.96875,-3.0625 4.96875,-7.90625 c 0,-5.5 1.1875,-11 5.078125,-14.953125 0.421875,-0.375 0.421875,-0.4375 0.421875,-0.53125 0,-0.21875 -0.125,-0.3125 -0.328125,-0.3125 -0.3125,0 -3.15625,2.140625 -5.015625,6.15625 -1.609375,3.484375 -2,6.984375 -2,9.640625 0,2.46875 0.359375,6.296875 2.09375,9.859375 1.890625,3.890625 4.609375,5.953125 4.921875,5.953125 0.203125,0 0.328125,-0.09375 0.328125,-0.3125 z m 0,0"
           id="path4117" />
      </g>
    </g>
    <g
       style="fill:#211e1e;fill-opacity:1"
       id="g3342"
       transform="matrix(0.35277777,0,0,0.35277777,-179.94306,-30.882371)">
      <g
         id="use3340"
         transform="translate(541.29816,103.1289)">
        <path
           style="stroke:none"
           d="m 10.5625,-9.546875 c 0.1875,-0.828125 0.90625,-3.734375 3.125,-3.734375 0.15625,0 0.921875,0 1.578125,0.421875 -0.890625,0.15625 -1.515625,0.9375 -1.515625,1.703125 0,0.5 0.34375,1.109375 1.203125,1.109375 0.6875,0 1.703125,-0.578125 1.703125,-1.84375 0,-1.640625 -1.859375,-2.078125 -2.9375,-2.078125 -1.828125,0 -2.9375,1.671875 -3.3125,2.40625 -0.796875,-2.09375 -2.5,-2.40625 -3.421875,-2.40625 -3.28125,0 -5.09375,4.078125 -5.09375,4.859375 0,0.328125 0.328125,0.328125 0.390625,0.328125 0.25,0 0.34375,-0.0625 0.40625,-0.359375 1.078125,-3.34375 3.15625,-4.140625 4.234375,-4.140625 0.59375,0 1.703125,0.296875 1.703125,2.125 0,0.984375 -0.53125,3.09375 -1.703125,7.515625 -0.5,1.96875 -1.609375,3.296875 -3,3.296875 -0.1875,0 -0.921875,0 -1.578125,-0.421875 0.78125,-0.15625 1.484375,-0.8125 1.484375,-1.703125 0,-0.84375 -0.703125,-1.109375 -1.171875,-1.109375 -0.953125,0 -1.734375,0.828125 -1.734375,1.84375 0,1.453125 1.578125,2.078125 2.96875,2.078125 2.078125,0 3.21875,-2.203125 3.3125,-2.390625 0.390625,1.15625 1.515625,2.390625 3.421875,2.390625 3.25,0 5.046875,-4.078125 5.046875,-4.859375 0,-0.328125 -0.28125,-0.328125 -0.375,-0.328125 -0.28125,0 -0.34375,0.140625 -0.40625,0.359375 -1.046875,3.375 -3.1875,4.140625 -4.203125,4.140625 -1.234375,0 -1.734375,-1.015625 -1.734375,-2.09375 0,-0.6875 0.1875,-1.390625 0.53125,-2.78125 z m 0,0"
           id="path4101" />
      </g>
    </g>
    <g
       style="fill:#211e1e;fill-opacity:1"
       id="g3346"
       transform="matrix(0.35277777,0,0,0.35277777,-179.94306,-30.882371)">
      <g
         id="use3344"
         transform="translate(559.3808,103.1289)">
        <path
           style="stroke:none"
           d="m 9.140625,-7.90625 c 0,-2.46875 -0.359375,-6.28125 -2.09375,-9.859375 -1.890625,-3.890625 -4.609375,-5.9375 -4.921875,-5.9375 -0.203125,0 -0.328125,0.125 -0.328125,0.3125 0,0.09375 0,0.15625 0.609375,0.734375 3.09375,3.125 4.890625,8.140625 4.890625,14.75 C 7.296875,-2.5 6.125,3.0625 2.21875,7.046875 c -0.421875,0.375 -0.421875,0.4375 -0.421875,0.546875 0,0.1875 0.125,0.3125 0.328125,0.3125 0.3125,0 3.15625,-2.15625 5.015625,-6.171875 1.609375,-3.46875 2,-6.984375 2,-9.640625 z m 0,0"
           id="path4109" />
      </g>
    </g>
    <path
       style="fill:none;stroke:#423f3f;stroke-width:0.458611;stroke-linecap:butt;stroke-linejoin:round;stroke-miterlimit:10;stroke-opacity:1"
       d="M 40.807667,70.022204 V 69.06171"
       id="path3352" />
    <g
       style="fill:#211e1e;fill-opacity:1"
       id="g3356"
       transform="matrix(0.35277777,0,0,0.35277777,-170.36015,-25.220903)">
      <g
         id="use3354"
         transform="translate(755.16461,313.3652)">
        <path
           style="stroke:none"
           d="m 10.5625,-9.546875 c 0.1875,-0.828125 0.90625,-3.734375 3.125,-3.734375 0.15625,0 0.921875,0 1.578125,0.421875 -0.890625,0.15625 -1.515625,0.9375 -1.515625,1.703125 0,0.5 0.34375,1.109375 1.203125,1.109375 0.6875,0 1.703125,-0.578125 1.703125,-1.84375 0,-1.640625 -1.859375,-2.078125 -2.9375,-2.078125 -1.828125,0 -2.9375,1.671875 -3.3125,2.40625 -0.796875,-2.09375 -2.5,-2.40625 -3.421875,-2.40625 -3.28125,0 -5.09375,4.078125 -5.09375,4.859375 0,0.328125 0.328125,0.328125 0.390625,0.328125 0.25,0 0.34375,-0.0625 0.40625,-0.359375 1.078125,-3.34375 3.15625,-4.140625 4.234375,-4.140625 0.59375,0 1.703125,0.296875 1.703125,2.125 0,0.984375 -0.53125,3.09375 -1.703125,7.515625 -0.5,1.96875 -1.609375,3.296875 -3,3.296875 -0.1875,0 -0.921875,0 -1.578125,-0.421875 0.78125,-0.15625 1.484375,-0.8125 1.484375,-1.703125 0,-0.84375 -0.703125,-1.109375 -1.171875,-1.109375 -0.953125,0 -1.734375,0.828125 -1.734375,1.84375 0,1.453125 1.578125,2.078125 2.96875,2.078125 2.078125,0 3.21875,-2.203125 3.3125,-2.390625 0.390625,1.15625 1.515625,2.390625 3.421875,2.390625 3.25,0 5.046875,-4.078125 5.046875,-4.859375 0,-0.328125 -0.28125,-0.328125 -0.375,-0.328125 -0.28125,0 -0.34375,0.140625 -0.40625,0.359375 -1.046875,3.375 -3.1875,4.140625 -4.203125,4.140625 -1.234375,0 -1.734375,-1.015625 -1.734375,-2.09375 0,-0.6875 0.1875,-1.390625 0.53125,-2.78125 z m 0,0"
           id="path4105" />
      </g>
    </g>
    <g
       style="fill:#0f0c0c;fill-opacity:1"
       id="g123"
       transform="matrix(0.35277777,0,0,0.35277777,-2.7823598,3.0100812)">
      <g
         id="use107"
         transform="translate(161.3389,246.4883)">
        <path
           style="stroke:none"
           d="M 0.765625,-3.90625 2.28125,-4.046875 c 0.070312,0.617187 0.238281,1.121094 0.5,1.515625 0.269531,0.386719 0.679688,0.699219 1.234375,0.9375 0.550781,0.242188 1.171875,0.359375 1.859375,0.359375 0.613281,0 1.15625,-0.085937 1.625,-0.265625 0.476562,-0.1875 0.832031,-0.4375 1.0625,-0.75 0.226562,-0.320312 0.34375,-0.675781 0.34375,-1.0625 0,-0.375 -0.117188,-0.703125 -0.34375,-0.984375 C 8.34375,-4.585938 7.984375,-4.832031 7.484375,-5.03125 7.148438,-5.15625 6.421875,-5.351562 5.296875,-5.625 4.179688,-5.894531 3.398438,-6.144531 2.953125,-6.375 2.367188,-6.6875 1.9375,-7.066406 1.65625,-7.515625 1.375,-7.960938 1.234375,-8.46875 1.234375,-9.03125 c 0,-0.613281 0.171875,-1.1875 0.515625,-1.71875 0.351562,-0.539062 0.863281,-0.945312 1.53125,-1.21875 0.664062,-0.28125 1.410156,-0.421875 2.234375,-0.421875 0.90625,0 1.703125,0.148437 2.390625,0.4375 0.6875,0.292969 1.210938,0.71875 1.578125,1.28125 0.375,0.5625 0.578125,1.203125 0.609375,1.921875 l -1.546875,0.125 c -0.085937,-0.769531 -0.367187,-1.351562 -0.84375,-1.75 -0.480469,-0.394531 -1.1875,-0.59375 -2.125,-0.59375 -0.96875,0 -1.679687,0.183594 -2.125,0.546875 -0.449219,0.355469 -0.671875,0.78125 -0.671875,1.28125 0,0.4375 0.15625,0.796875 0.46875,1.078125 0.3125,0.28125 1.125,0.574219 2.4375,0.875 1.3125,0.292969 2.210938,0.546875 2.703125,0.765625 0.707031,0.335937 1.226563,0.75 1.5625,1.25 0.332031,0.5 0.5,1.078125 0.5,1.734375 0,0.648438 -0.1875,1.257812 -0.5625,1.828125 -0.367187,0.574219 -0.898437,1.023437 -1.59375,1.34375 -0.6875,0.3125 -1.46875,0.46875 -2.34375,0.46875 -1.105469,0 -2.03125,-0.15625 -2.78125,-0.46875 -0.742187,-0.320313 -1.324219,-0.804687 -1.75,-1.453125 -0.417969,-0.644531 -0.636719,-1.375 -0.65625,-2.1875 z m 0,0"
           id="path4527" />
      </g>
      <g
         id="use109"
         transform="translate(172.68831,246.4883)">
        <path
           style="stroke:none"
           d="m 4.390625,-1.34375 0.21875,1.328125 c -0.429687,0.0820312 -0.808594,0.125 -1.140625,0.125 -0.542969,0 -0.964844,-0.0859375 -1.265625,-0.25 -0.292969,-0.175781 -0.5,-0.398437 -0.625,-0.671875 -0.125,-0.28125 -0.1875,-0.867188 -0.1875,-1.765625 V -7.65625 h -1.09375 v -1.171875 h 1.09375 v -2.1875 l 1.5,-0.890625 v 3.078125 h 1.5 v 1.171875 h -1.5 V -2.5 c 0,0.429688 0.023437,0.703125 0.078125,0.828125 0.050781,0.117187 0.132812,0.210937 0.25,0.28125 0.113281,0.074219 0.285156,0.109375 0.515625,0.109375 0.164063,0 0.382813,-0.019531 0.65625,-0.0625 z m 0,0"
           id="path4519" />
      </g>
      <g
         id="use111"
         transform="translate(177.41864,246.4883)">
        <path
           style="stroke:none"
           d="M 1.125,-10.453125 V -12.1875 h 1.5 v 1.734375 z M 1.125,0 v -8.828125 h 1.5 V 0 Z m 0,0"
           id="path4531" />
      </g>
      <g
         id="use113"
         transform="translate(181.19611,246.4883)">
        <path
           style="stroke:none"
           d="m 1.125,0 v -8.828125 h 1.328125 v 1.25 c 0.28125,-0.4375 0.648437,-0.785156 1.109375,-1.046875 0.457031,-0.257812 0.984375,-0.390625 1.578125,-0.390625 0.644531,0 1.175781,0.136719 1.59375,0.40625 0.425781,0.273437 0.722656,0.648437 0.890625,1.125 0.695312,-1.019531 1.609375,-1.53125 2.734375,-1.53125 0.875,0 1.546875,0.246094 2.015625,0.734375 0.46875,0.480469 0.703125,1.21875 0.703125,2.21875 V 0 H 11.59375 v -5.5625 c 0,-0.59375 -0.05469,-1.019531 -0.15625,-1.28125 -0.09375,-0.269531 -0.273438,-0.484375 -0.53125,-0.640625 -0.25,-0.164063 -0.546875,-0.25 -0.890625,-0.25 -0.617187,0 -1.132813,0.210937 -1.546875,0.625 C 8.0625,-6.691406 7.859375,-6.03125 7.859375,-5.125 V 0 h -1.5 v -5.734375 c 0,-0.664063 -0.121094,-1.164063 -0.359375,-1.5 -0.242188,-0.332031 -0.640625,-0.5 -1.203125,-0.5 -0.417969,0 -0.808594,0.117187 -1.171875,0.34375 -0.355469,0.21875 -0.617188,0.542969 -0.78125,0.96875 -0.15625,0.429687 -0.234375,1.042969 -0.234375,1.84375 V 0 Z m 0,0"
           id="path4507" />
      </g>
      <g
         id="use115"
         transform="translate(195.3701,246.4883)">
        <path
           style="stroke:none"
           d="m 6.90625,0 v -1.296875 c -0.6875,1 -1.621094,1.5 -2.796875,1.5 -0.523437,0 -1.011719,-0.101563 -1.46875,-0.296875 -0.449219,-0.207031 -0.78125,-0.457031 -1,-0.75 C 1.421875,-1.144531 1.269531,-1.515625 1.1875,-1.953125 1.125,-2.253906 1.09375,-2.722656 1.09375,-3.359375 v -5.46875 H 2.578125 V -3.9375 c 0,0.78125 0.03125,1.3125 0.09375,1.59375 0.09375,0.386719 0.289063,0.695312 0.59375,0.921875 0.3125,0.21875 0.691406,0.328125 1.140625,0.328125 0.445312,0 0.863281,-0.113281 1.25,-0.34375 C 6.050781,-1.664062 6.332031,-1.976562 6.5,-2.375 6.664062,-2.769531 6.75,-3.34375 6.75,-4.09375 V -8.828125 H 8.234375 V 0 Z m 0,0"
           id="path4495" />
      </g>
      <g
         id="use117"
         transform="translate(204.83078,246.4883)">
        <path
           style="stroke:none"
           d="M 1.09375,0 V -12.1875 H 2.578125 V 0 Z m 0,0"
           id="path4487" />
      </g>
      <g
         id="use119"
         transform="translate(208.60823,246.4883)">
        <path
           style="stroke:none"
           d="m 6.90625,0 v -1.296875 c -0.6875,1 -1.621094,1.5 -2.796875,1.5 -0.523437,0 -1.011719,-0.101563 -1.46875,-0.296875 -0.449219,-0.207031 -0.78125,-0.457031 -1,-0.75 C 1.421875,-1.144531 1.269531,-1.515625 1.1875,-1.953125 1.125,-2.253906 1.09375,-2.722656 1.09375,-3.359375 v -5.46875 H 2.578125 V -3.9375 c 0,0.78125 0.03125,1.3125 0.09375,1.59375 0.09375,0.386719 0.289063,0.695312 0.59375,0.921875 0.3125,0.21875 0.691406,0.328125 1.140625,0.328125 0.445312,0 0.863281,-0.113281 1.25,-0.34375 C 6.050781,-1.664062 6.332031,-1.976562 6.5,-2.375 6.664062,-2.769531 6.75,-3.34375 6.75,-4.09375 V -8.828125 H 8.234375 V 0 Z m 0,0"
           id="path4499" />
      </g>
      <g
         id="use121"
         transform="translate(218.06891,246.4883)">
        <path
           style="stroke:none"
           d="M 0.515625,-2.640625 2,-2.859375 c 0.082031,0.585937 0.3125,1.039063 0.6875,1.359375 0.382812,0.3125 0.914062,0.46875 1.59375,0.46875 0.6875,0 1.195312,-0.140625 1.53125,-0.421875 0.332031,-0.28125 0.5,-0.609375 0.5,-0.984375 0,-0.332031 -0.148438,-0.597656 -0.4375,-0.796875 -0.210938,-0.132813 -0.71875,-0.300781 -1.53125,-0.5 C 3.25,-4.015625 2.488281,-4.253906 2.0625,-4.453125 c -0.429688,-0.207031 -0.75,-0.488281 -0.96875,-0.84375 -0.21875,-0.351563 -0.328125,-0.75 -0.328125,-1.1875 0,-0.394531 0.085937,-0.757813 0.265625,-1.09375 0.1875,-0.332031 0.4375,-0.609375 0.75,-0.828125 0.226562,-0.175781 0.539062,-0.320312 0.9375,-0.4375 0.40625,-0.113281 0.835938,-0.171875 1.296875,-0.171875 0.695313,0 1.304687,0.101563 1.828125,0.296875 C 6.363281,-8.519531 6.75,-8.25 7,-7.90625 c 0.25,0.335938 0.421875,0.789062 0.515625,1.359375 L 6.0625,-6.34375 C 5.988281,-6.800781 5.789062,-7.15625 5.46875,-7.40625 5.15625,-7.664062 4.707031,-7.796875 4.125,-7.796875 c -0.6875,0 -1.179688,0.117187 -1.46875,0.34375 -0.292969,0.230469 -0.4375,0.496094 -0.4375,0.796875 0,0.199219 0.0625,0.375 0.1875,0.53125 0.113281,0.15625 0.300781,0.289062 0.5625,0.390625 0.15625,0.054687 0.597656,0.183594 1.328125,0.390625 1.050781,0.28125 1.785156,0.511719 2.203125,0.6875 0.425781,0.179688 0.753906,0.4375 0.984375,0.78125 0.238281,0.34375 0.359375,0.773438 0.359375,1.28125 0,0.5 -0.148438,0.976562 -0.4375,1.421875 -0.28125,0.4375 -0.699219,0.777344 -1.25,1.015625 -0.554688,0.2382812 -1.171875,0.359375 -1.859375,0.359375 -1.148437,0 -2.023437,-0.2382812 -2.625,-0.71875 -0.605469,-0.476563 -0.992187,-1.1875 -1.15625,-2.125 z m 0,0"
           id="path4475" />
      </g>
    </g>
    <g
       style="fill:#0f0c0c;fill-opacity:1"
       id="g143"
       transform="matrix(0.35277777,0,0,0.35277777,-2.7823598,3.0100812)">
      <g
         id="use125"
         transform="translate(155.17926,266.90701)">
        <path
           style="stroke:none"
           d="m 6.84375,0 v -1.109375 c -0.5625,0.875 -1.386719,1.3125 -2.46875,1.3125 C 3.675781,0.203125 3.03125,0.0078125 2.4375,-0.375 1.84375,-0.769531 1.382812,-1.3125 1.0625,-2 0.738281,-2.695312 0.578125,-3.5 0.578125,-4.40625 c 0,-0.875 0.144531,-1.671875 0.4375,-2.390625 C 1.316406,-7.515625 1.757812,-8.0625 2.34375,-8.4375 2.925781,-8.820312 3.582031,-9.015625 4.3125,-9.015625 c 0.53125,0 1.003906,0.117187 1.421875,0.34375 0.414063,0.21875 0.753906,0.507813 1.015625,0.859375 v -4.375 H 8.234375 V 0 Z M 2.125,-4.40625 c 0,1.136719 0.234375,1.984375 0.703125,2.546875 0.476563,0.554687 1.039063,0.828125 1.6875,0.828125 0.65625,0 1.210937,-0.265625 1.671875,-0.796875 C 6.644531,-2.367188 6.875,-3.1875 6.875,-4.28125 6.875,-5.488281 6.640625,-6.375 6.171875,-6.9375 5.703125,-7.5 5.128906,-7.78125 4.453125,-7.78125 c -0.667969,0 -1.226563,0.273438 -1.671875,0.8125 -0.4375,0.542969 -0.65625,1.398438 -0.65625,2.5625 z m 0,0"
           id="path4467" />
      </g>
      <g
         id="use127"
         transform="translate(164.63992,266.90701)">
        <path
           style="stroke:none"
           d="M 1.125,-10.453125 V -12.1875 h 1.5 v 1.734375 z M 1.125,0 v -8.828125 h 1.5 V 0 Z m 0,0"
           id="path4535" />
      </g>
      <g
         id="use129"
         transform="translate(168.41739,266.90701)">
        <path
           style="stroke:none"
           d="m 1.125,0 v -8.828125 h 1.328125 v 1.25 c 0.28125,-0.4375 0.648437,-0.785156 1.109375,-1.046875 0.457031,-0.257812 0.984375,-0.390625 1.578125,-0.390625 0.644531,0 1.175781,0.136719 1.59375,0.40625 0.425781,0.273437 0.722656,0.648437 0.890625,1.125 0.695312,-1.019531 1.609375,-1.53125 2.734375,-1.53125 0.875,0 1.546875,0.246094 2.015625,0.734375 0.46875,0.480469 0.703125,1.21875 0.703125,2.21875 V 0 H 11.59375 v -5.5625 c 0,-0.59375 -0.05469,-1.019531 -0.15625,-1.28125 -0.09375,-0.269531 -0.273438,-0.484375 -0.53125,-0.640625 -0.25,-0.164063 -0.546875,-0.25 -0.890625,-0.25 -0.617187,0 -1.132813,0.210937 -1.546875,0.625 C 8.0625,-6.691406 7.859375,-6.03125 7.859375,-5.125 V 0 h -1.5 v -5.734375 c 0,-0.664063 -0.121094,-1.164063 -0.359375,-1.5 -0.242188,-0.332031 -0.640625,-0.5 -1.203125,-0.5 -0.417969,0 -0.808594,0.117187 -1.171875,0.34375 -0.355469,0.21875 -0.617188,0.542969 -0.78125,0.96875 -0.15625,0.429687 -0.234375,1.042969 -0.234375,1.84375 V 0 Z m 0,0"
           id="path4511" />
      </g>
      <g
         id="use131"
         transform="translate(182.59138,266.90701)">
        <path
           style="stroke:none"
           d="m 7.15625,-2.84375 1.546875,0.1875 C 8.460938,-1.75 8.007812,-1.046875 7.34375,-0.546875 c -0.65625,0.5 -1.496094,0.75 -2.515625,0.75 -1.292969,0 -2.320313,-0.394531 -3.078125,-1.1875 C 1,-1.785156 0.625,-2.90625 0.625,-4.34375 c 0,-1.476562 0.378906,-2.625 1.140625,-3.4375 C 2.535156,-8.601562 3.53125,-9.015625 4.75,-9.015625 c 1.175781,0 2.132812,0.402344 2.875,1.203125 0.75,0.804688 1.125,1.933594 1.125,3.390625 0,0.085937 0,0.214844 0,0.390625 H 2.171875 c 0.050781,0.96875 0.320313,1.714844 0.8125,2.234375 0.5,0.511719 1.113281,0.765625 1.84375,0.765625 0.550781,0 1.019531,-0.140625 1.40625,-0.421875 C 6.628906,-1.742188 6.9375,-2.207031 7.15625,-2.84375 Z M 2.25,-5.265625 h 4.921875 c -0.0625,-0.738281 -0.25,-1.289063 -0.5625,-1.65625 -0.46875,-0.582031 -1.085937,-0.875 -1.84375,-0.875 -0.6875,0 -1.265625,0.230469 -1.734375,0.6875 C 2.5625,-6.648438 2.300781,-6.035156 2.25,-5.265625 Z m 0,0"
           id="path4451" />
      </g>
      <g
         id="use133"
         transform="translate(192.05206,266.90701)">
        <path
           style="stroke:none"
           d="M 1.125,0 V -8.828125 H 2.46875 V -7.5625 c 0.644531,-0.96875 1.582031,-1.453125 2.8125,-1.453125 0.53125,0 1.015625,0.09375 1.453125,0.28125 0.445313,0.1875 0.78125,0.4375 1,0.75 0.226563,0.3125 0.382813,0.683594 0.46875,1.109375 0.0625,0.273438 0.09375,0.757812 0.09375,1.453125 V 0 h -1.5 V -5.375 C 6.796875,-5.976562 6.738281,-6.429688 6.625,-6.734375 6.507812,-7.035156 6.300781,-7.273438 6,-7.453125 c -0.292969,-0.1875 -0.640625,-0.28125 -1.046875,-0.28125 -0.636719,0 -1.1875,0.203125 -1.65625,0.609375 -0.460937,0.40625 -0.6875,1.179688 -0.6875,2.3125 V 0 Z m 0,0"
           id="path4435" />
      </g>
      <g
         id="use135"
         transform="translate(201.51273,266.90701)">
        <path
           style="stroke:none"
           d="M 0.515625,-2.640625 2,-2.859375 c 0.082031,0.585937 0.3125,1.039063 0.6875,1.359375 0.382812,0.3125 0.914062,0.46875 1.59375,0.46875 0.6875,0 1.195312,-0.140625 1.53125,-0.421875 0.332031,-0.28125 0.5,-0.609375 0.5,-0.984375 0,-0.332031 -0.148438,-0.597656 -0.4375,-0.796875 -0.210938,-0.132813 -0.71875,-0.300781 -1.53125,-0.5 C 3.25,-4.015625 2.488281,-4.253906 2.0625,-4.453125 c -0.429688,-0.207031 -0.75,-0.488281 -0.96875,-0.84375 -0.21875,-0.351563 -0.328125,-0.75 -0.328125,-1.1875 0,-0.394531 0.085937,-0.757813 0.265625,-1.09375 0.1875,-0.332031 0.4375,-0.609375 0.75,-0.828125 0.226562,-0.175781 0.539062,-0.320312 0.9375,-0.4375 0.40625,-0.113281 0.835938,-0.171875 1.296875,-0.171875 0.695313,0 1.304687,0.101563 1.828125,0.296875 C 6.363281,-8.519531 6.75,-8.25 7,-7.90625 c 0.25,0.335938 0.421875,0.789062 0.515625,1.359375 L 6.0625,-6.34375 C 5.988281,-6.800781 5.789062,-7.15625 5.46875,-7.40625 5.15625,-7.664062 4.707031,-7.796875 4.125,-7.796875 c -0.6875,0 -1.179688,0.117187 -1.46875,0.34375 -0.292969,0.230469 -0.4375,0.496094 -0.4375,0.796875 0,0.199219 0.0625,0.375 0.1875,0.53125 0.113281,0.15625 0.300781,0.289062 0.5625,0.390625 0.15625,0.054687 0.597656,0.183594 1.328125,0.390625 1.050781,0.28125 1.785156,0.511719 2.203125,0.6875 0.425781,0.179688 0.753906,0.4375 0.984375,0.78125 0.238281,0.34375 0.359375,0.773438 0.359375,1.28125 0,0.5 -0.148438,0.976562 -0.4375,1.421875 -0.28125,0.4375 -0.699219,0.777344 -1.25,1.015625 -0.554688,0.2382812 -1.171875,0.359375 -1.859375,0.359375 -1.148437,0 -2.023437,-0.2382812 -2.625,-0.71875 -0.605469,-0.476563 -0.992187,-1.1875 -1.15625,-2.125 z m 0,0"
           id="path4479" />
      </g>
      <g
         id="use137"
         transform="translate(210.02054,266.90701)">
        <path
           style="stroke:none"
           d="M 1.125,-10.453125 V -12.1875 h 1.5 v 1.734375 z M 1.125,0 v -8.828125 h 1.5 V 0 Z m 0,0"
           id="path4539" />
      </g>
      <g
         id="use139"
         transform="translate(213.79799,266.90701)">
        <path
           style="stroke:none"
           d="m 0.5625,-4.40625 c 0,-1.632812 0.453125,-2.847656 1.359375,-3.640625 0.757813,-0.644531 1.6875,-0.96875 2.78125,-0.96875 1.207031,0 2.195313,0.398437 2.96875,1.1875 0.769531,0.792969 1.15625,1.890625 1.15625,3.296875 0,1.136719 -0.171875,2.03125 -0.515625,2.6875 -0.335938,0.648438 -0.828125,1.152344 -1.484375,1.515625 -0.648437,0.3515625 -1.355469,0.53125 -2.125,0.53125 -1.242187,0 -2.242187,-0.394531 -3,-1.1875 C 0.941406,-1.773438 0.5625,-2.914062 0.5625,-4.40625 Z m 1.546875,0 c 0,1.125 0.242187,1.96875 0.734375,2.53125 0.488281,0.5625 1.109375,0.84375 1.859375,0.84375 0.738281,0 1.351563,-0.28125 1.84375,-0.84375 0.5,-0.5625 0.75,-1.425781 0.75,-2.59375 0,-1.082031 -0.25,-1.90625 -0.75,-2.46875 C 6.054688,-7.5 5.441406,-7.78125 4.703125,-7.78125 c -0.75,0 -1.371094,0.28125 -1.859375,0.84375 -0.492188,0.554688 -0.734375,1.398438 -0.734375,2.53125 z m 0,0"
           id="path4427" />
      </g>
      <g
         id="use141"
         transform="translate(223.25867,266.90701)">
        <path
           style="stroke:none"
           d="M 1.125,0 V -8.828125 H 2.46875 V -7.5625 c 0.644531,-0.96875 1.582031,-1.453125 2.8125,-1.453125 0.53125,0 1.015625,0.09375 1.453125,0.28125 0.445313,0.1875 0.78125,0.4375 1,0.75 0.226563,0.3125 0.382813,0.683594 0.46875,1.109375 0.0625,0.273438 0.09375,0.757812 0.09375,1.453125 V 0 h -1.5 V -5.375 C 6.796875,-5.976562 6.738281,-6.429688 6.625,-6.734375 6.507812,-7.035156 6.300781,-7.273438 6,-7.453125 c -0.292969,-0.1875 -0.640625,-0.28125 -1.046875,-0.28125 -0.636719,0 -1.1875,0.203125 -1.65625,0.609375 -0.460937,0.40625 -0.6875,1.179688 -0.6875,2.3125 V 0 Z m 0,0"
           id="path4439" />
      </g>
    </g>
    <g
       style="fill:#0f0c0c;fill-opacity:1"
       id="g165"
       transform="matrix(0.35277777,0,0,0.35277777,-18.135145,-9.5941235)">
      <g
         id="use145"
         transform="translate(8.3005943,83.002419)">
        <path
           style="stroke:none"
           d="m 1.3125,0 v -12.1875 h 4.59375 c 0.8125,0 1.429688,0.04297 1.859375,0.125 0.59375,0.09375 1.09375,0.28125 1.5,0.5625 0.40625,0.28125 0.726563,0.679688 0.96875,1.1875 0.25,0.5 0.375,1.054688 0.375,1.65625 0,1.03125 -0.335937,1.90625 -1,2.625 -0.65625,0.71875 -1.84375,1.078125 -3.5625,1.078125 h -3.125 V 0 Z m 1.609375,-6.390625 h 3.15625 c 1.039063,0 1.78125,-0.191406 2.21875,-0.578125 0.4375,-0.382812 0.65625,-0.929688 0.65625,-1.640625 0,-0.507813 -0.132813,-0.941406 -0.390625,-1.296875 -0.261719,-0.363281 -0.601562,-0.609375 -1.015625,-0.734375 -0.273437,-0.07031 -0.773437,-0.109375 -1.5,-0.109375 h -3.125 z m 0,0"
           id="path4423" />
      </g>
      <g
         id="use147"
         transform="translate(19.65,83.002419)">
        <path
           style="stroke:none"
           d="m 7.15625,-2.84375 1.546875,0.1875 C 8.460938,-1.75 8.007812,-1.046875 7.34375,-0.546875 c -0.65625,0.5 -1.496094,0.75 -2.515625,0.75 -1.292969,0 -2.320313,-0.394531 -3.078125,-1.1875 C 1,-1.785156 0.625,-2.90625 0.625,-4.34375 c 0,-1.476562 0.378906,-2.625 1.140625,-3.4375 C 2.535156,-8.601562 3.53125,-9.015625 4.75,-9.015625 c 1.175781,0 2.132812,0.402344 2.875,1.203125 0.75,0.804688 1.125,1.933594 1.125,3.390625 0,0.085937 0,0.214844 0,0.390625 H 2.171875 c 0.050781,0.96875 0.320313,1.714844 0.8125,2.234375 0.5,0.511719 1.113281,0.765625 1.84375,0.765625 0.550781,0 1.019531,-0.140625 1.40625,-0.421875 C 6.628906,-1.742188 6.9375,-2.207031 7.15625,-2.84375 Z M 2.25,-5.265625 h 4.921875 c -0.0625,-0.738281 -0.25,-1.289063 -0.5625,-1.65625 -0.46875,-0.582031 -1.085937,-0.875 -1.84375,-0.875 -0.6875,0 -1.265625,0.230469 -1.734375,0.6875 C 2.5625,-6.648438 2.300781,-6.035156 2.25,-5.265625 Z m 0,0"
           id="path4455" />
      </g>
      <g
         id="use149"
         transform="translate(29.110672,83.002419)">
        <path
           style="stroke:none"
           d="m 1.109375,0 v -8.828125 h 1.34375 v 1.34375 c 0.34375,-0.625 0.660156,-1.035156 0.953125,-1.234375 0.289062,-0.195312 0.609375,-0.296875 0.953125,-0.296875 0.507813,0 1.023437,0.15625 1.546875,0.46875 L 5.390625,-7.15625 C 5.015625,-7.375 4.644531,-7.484375 4.28125,-7.484375 c -0.324219,0 -0.617188,0.101563 -0.875,0.296875 -0.261719,0.199219 -0.449219,0.476562 -0.5625,0.828125 -0.167969,0.53125 -0.25,1.109375 -0.25,1.734375 V 0 Z m 0,0"
           id="path4419" />
      </g>
      <g
         id="use151"
         transform="translate(34.776867,83.002419)">
        <path
           style="stroke:none"
           d="m 6.875,-3.234375 1.46875,0.1875 c -0.15625,1.023437 -0.570312,1.820313 -1.234375,2.390625 -0.65625,0.5742188 -1.46875,0.859375 -2.4375,0.859375 -1.210937,0 -2.179687,-0.394531 -2.90625,-1.1875 C 1.035156,-1.773438 0.671875,-2.90625 0.671875,-4.375 c 0,-0.957031 0.15625,-1.789062 0.46875,-2.5 0.3125,-0.71875 0.789063,-1.253906 1.4375,-1.609375 0.644531,-0.351563 1.347656,-0.53125 2.109375,-0.53125 0.957031,0 1.738281,0.246094 2.34375,0.734375 0.613281,0.480469 1.003906,1.164062 1.171875,2.046875 L 6.75,-6 C 6.613281,-6.59375 6.367188,-7.039062 6.015625,-7.34375 5.660156,-7.644531 5.238281,-7.796875 4.75,-7.796875 c -0.761719,0 -1.375,0.273437 -1.84375,0.8125 -0.46875,0.542969 -0.703125,1.398437 -0.703125,2.5625 0,1.1875 0.222656,2.054687 0.671875,2.59375 0.457031,0.53125 1.050781,0.796875 1.78125,0.796875 0.59375,0 1.082031,-0.175781 1.46875,-0.53125 0.394531,-0.363281 0.644531,-0.921875 0.75,-1.671875 z m 0,0"
           id="path4415" />
      </g>
      <g
         id="use153"
         transform="translate(43.284668,83.002419)">
        <path
           style="stroke:none"
           d="m 7.15625,-2.84375 1.546875,0.1875 C 8.460938,-1.75 8.007812,-1.046875 7.34375,-0.546875 c -0.65625,0.5 -1.496094,0.75 -2.515625,0.75 -1.292969,0 -2.320313,-0.394531 -3.078125,-1.1875 C 1,-1.785156 0.625,-2.90625 0.625,-4.34375 c 0,-1.476562 0.378906,-2.625 1.140625,-3.4375 C 2.535156,-8.601562 3.53125,-9.015625 4.75,-9.015625 c 1.175781,0 2.132812,0.402344 2.875,1.203125 0.75,0.804688 1.125,1.933594 1.125,3.390625 0,0.085937 0,0.214844 0,0.390625 H 2.171875 c 0.050781,0.96875 0.320313,1.714844 0.8125,2.234375 0.5,0.511719 1.113281,0.765625 1.84375,0.765625 0.550781,0 1.019531,-0.140625 1.40625,-0.421875 C 6.628906,-1.742188 6.9375,-2.207031 7.15625,-2.84375 Z M 2.25,-5.265625 h 4.921875 c -0.0625,-0.738281 -0.25,-1.289063 -0.5625,-1.65625 -0.46875,-0.582031 -1.085937,-0.875 -1.84375,-0.875 -0.6875,0 -1.265625,0.230469 -1.734375,0.6875 C 2.5625,-6.648438 2.300781,-6.035156 2.25,-5.265625 Z m 0,0"
           id="path4459" />
      </g>
      <g
         id="use155"
         transform="translate(52.745342,83.002419)">
        <path
           style="stroke:none"
           d="M 1.125,3.375 V -8.828125 h 1.359375 v 1.15625 c 0.320313,-0.445313 0.679687,-0.78125 1.078125,-1 0.40625,-0.226563 0.898438,-0.34375 1.484375,-0.34375 0.75,0 1.410156,0.195313 1.984375,0.578125 0.582031,0.386719 1.019531,0.933594 1.3125,1.640625 0.289062,0.710937 0.4375,1.480469 0.4375,2.3125 0,0.90625 -0.164062,1.726563 -0.484375,2.453125 C 7.972656,-1.3125 7.5,-0.757812 6.875,-0.375 6.257812,0.0078125 5.613281,0.203125 4.9375,0.203125 c -0.5,0 -0.949219,-0.1054688 -1.34375,-0.3125 C 3.195312,-0.328125 2.867188,-0.59375 2.609375,-0.90625 V 3.375 Z m 1.34375,-7.734375 c 0,1.136719 0.226562,1.976563 0.6875,2.515625 0.46875,0.542969 1.023438,0.8125 1.671875,0.8125 0.664063,0 1.234375,-0.28125 1.703125,-0.84375 C 7.007812,-2.4375 7.25,-3.304688 7.25,-4.484375 7.25,-5.609375 7.015625,-6.445312 6.546875,-7 6.085938,-7.5625 5.539062,-7.84375 4.90625,-7.84375 c -0.636719,0 -1.203125,0.296875 -1.703125,0.890625 -0.492187,0.59375 -0.734375,1.460937 -0.734375,2.59375 z m 0,0"
           id="path4411" />
      </g>
      <g
         id="use157"
         transform="translate(62.206013,83.002419)">
        <path
           style="stroke:none"
           d="m 4.390625,-1.34375 0.21875,1.328125 c -0.429687,0.0820312 -0.808594,0.125 -1.140625,0.125 -0.542969,0 -0.964844,-0.0859375 -1.265625,-0.25 -0.292969,-0.175781 -0.5,-0.398437 -0.625,-0.671875 -0.125,-0.28125 -0.1875,-0.867188 -0.1875,-1.765625 V -7.65625 h -1.09375 v -1.171875 h 1.09375 v -2.1875 l 1.5,-0.890625 v 3.078125 h 1.5 v 1.171875 h -1.5 V -2.5 c 0,0.429688 0.023437,0.703125 0.078125,0.828125 0.050781,0.117187 0.132812,0.210937 0.25,0.28125 0.113281,0.074219 0.285156,0.109375 0.515625,0.109375 0.164063,0 0.382813,-0.019531 0.65625,-0.0625 z m 0,0"
           id="path4523" />
      </g>
      <g
         id="use159"
         transform="translate(66.936348,83.002419)">
        <path
           style="stroke:none"
           d="m 6.90625,0 v -1.296875 c -0.6875,1 -1.621094,1.5 -2.796875,1.5 -0.523437,0 -1.011719,-0.101563 -1.46875,-0.296875 -0.449219,-0.207031 -0.78125,-0.457031 -1,-0.75 C 1.421875,-1.144531 1.269531,-1.515625 1.1875,-1.953125 1.125,-2.253906 1.09375,-2.722656 1.09375,-3.359375 v -5.46875 H 2.578125 V -3.9375 c 0,0.78125 0.03125,1.3125 0.09375,1.59375 0.09375,0.386719 0.289063,0.695312 0.59375,0.921875 0.3125,0.21875 0.691406,0.328125 1.140625,0.328125 0.445312,0 0.863281,-0.113281 1.25,-0.34375 C 6.050781,-1.664062 6.332031,-1.976562 6.5,-2.375 6.664062,-2.769531 6.75,-3.34375 6.75,-4.09375 V -8.828125 H 8.234375 V 0 Z m 0,0"
           id="path4503" />
      </g>
      <g
         id="use161"
         transform="translate(76.397026,83.002419)">
        <path
           style="stroke:none"
           d="M 6.875,-1.09375 C 6.320312,-0.613281 5.789062,-0.273438 5.28125,-0.078125 4.769531,0.109375 4.21875,0.203125 3.625,0.203125 2.65625,0.203125 1.910156,-0.03125 1.390625,-0.5 0.867188,-0.976562 0.609375,-1.585938 0.609375,-2.328125 c 0,-0.425781 0.097656,-0.816406 0.296875,-1.171875 0.195312,-0.363281 0.453125,-0.648438 0.765625,-0.859375 0.320313,-0.21875 0.6875,-0.382813 1.09375,-0.5 C 3.054688,-4.941406 3.5,-5.015625 4.09375,-5.078125 5.300781,-5.222656 6.1875,-5.394531 6.75,-5.59375 6.75781,-5.800781 6.765625,-5.929688 6.765625,-5.984375 6.765625,-6.597656 6.625,-7.03125 6.34375,-7.28125 c -0.386719,-0.332031 -0.953125,-0.5 -1.703125,-0.5 -0.710937,0 -1.230469,0.125 -1.5625,0.375 -0.335937,0.242188 -0.585937,0.671875 -0.75,1.296875 L 0.875,-6.3125 c 0.132812,-0.625 0.351562,-1.128906 0.65625,-1.515625 0.300781,-0.382813 0.738281,-0.675781 1.3125,-0.875 0.582031,-0.207031 1.253906,-0.3125 2.015625,-0.3125 0.75,0 1.359375,0.089844 1.828125,0.265625 0.46875,0.179688 0.8125,0.402344 1.03125,0.671875 0.226562,0.261719 0.382812,0.59375 0.46875,1 0.050781,0.261719 0.078125,0.726563 0.078125,1.390625 v 1.984375 c 0,1.398437 0.03125,2.28125 0.09375,2.65625 0.0625,0.367187 0.1875,0.714844 0.375,1.046875 h -1.5625 C 7.023438,-0.3125 6.925781,-0.675781 6.875,-1.09375 Z M 6.75,-4.421875 c -0.542969,0.21875 -1.355469,0.40625 -2.4375,0.5625 C 3.695312,-3.773438 3.257812,-3.675781 3,-3.5625 2.75,-3.445312 2.550781,-3.285156 2.40625,-3.078125 2.269531,-2.867188 2.203125,-2.632812 2.203125,-2.375 c 0,0.40625 0.148437,0.746094 0.453125,1.015625 0.300781,0.261719 0.742188,0.390625 1.328125,0.390625 0.582031,0 1.097656,-0.125 1.546875,-0.375 C 5.976562,-1.601562 6.304688,-1.953125 6.515625,-2.390625 6.671875,-2.722656 6.75,-3.21875 6.75,-3.875 Z m 0,0"
           id="path4407" />
      </g>
      <g
         id="use163"
         transform="translate(85.857697,83.002419)">
        <path
           style="stroke:none"
           d="M 1.09375,0 V -12.1875 H 2.578125 V 0 Z m 0,0"
           id="path4491" />
      </g>
    </g>
    <g
       style="fill:#0f0c0c;fill-opacity:1"
       id="g185"
       transform="matrix(0.35277777,0,0,0.35277777,-18.766962,-8.9351319)">
      <g
         id="use167"
         transform="translate(10.189325,103.42113)">
        <path
           style="stroke:none"
           d="m 6.84375,0 v -1.109375 c -0.5625,0.875 -1.386719,1.3125 -2.46875,1.3125 C 3.675781,0.203125 3.03125,0.0078125 2.4375,-0.375 1.84375,-0.769531 1.382812,-1.3125 1.0625,-2 0.738281,-2.695312 0.578125,-3.5 0.578125,-4.40625 c 0,-0.875 0.144531,-1.671875 0.4375,-2.390625 C 1.316406,-7.515625 1.757812,-8.0625 2.34375,-8.4375 2.925781,-8.820312 3.582031,-9.015625 4.3125,-9.015625 c 0.53125,0 1.003906,0.117187 1.421875,0.34375 0.414063,0.21875 0.753906,0.507813 1.015625,0.859375 v -4.375 H 8.234375 V 0 Z M 2.125,-4.40625 c 0,1.136719 0.234375,1.984375 0.703125,2.546875 0.476563,0.554687 1.039063,0.828125 1.6875,0.828125 0.65625,0 1.210937,-0.265625 1.671875,-0.796875 C 6.644531,-2.367188 6.875,-3.1875 6.875,-4.28125 6.875,-5.488281 6.640625,-6.375 6.171875,-6.9375 5.703125,-7.5 5.128906,-7.78125 4.453125,-7.78125 c -0.667969,0 -1.226563,0.273438 -1.671875,0.8125 -0.4375,0.542969 -0.65625,1.398438 -0.65625,2.5625 z m 0,0"
           id="path4471" />
      </g>
      <g
         id="use169"
         transform="translate(19.65,103.42113)">
        <path
           style="stroke:none"
           d="M 1.125,-10.453125 V -12.1875 h 1.5 v 1.734375 z M 1.125,0 v -8.828125 h 1.5 V 0 Z m 0,0"
           id="path4543" />
      </g>
      <g
         id="use171"
         transform="translate(23.427462,103.42113)">
        <path
           style="stroke:none"
           d="m 1.125,0 v -8.828125 h 1.328125 v 1.25 c 0.28125,-0.4375 0.648437,-0.785156 1.109375,-1.046875 0.457031,-0.257812 0.984375,-0.390625 1.578125,-0.390625 0.644531,0 1.175781,0.136719 1.59375,0.40625 0.425781,0.273437 0.722656,0.648437 0.890625,1.125 0.695312,-1.019531 1.609375,-1.53125 2.734375,-1.53125 0.875,0 1.546875,0.246094 2.015625,0.734375 0.46875,0.480469 0.703125,1.21875 0.703125,2.21875 V 0 H 11.59375 v -5.5625 c 0,-0.59375 -0.05469,-1.019531 -0.15625,-1.28125 -0.09375,-0.269531 -0.273438,-0.484375 -0.53125,-0.640625 -0.25,-0.164063 -0.546875,-0.25 -0.890625,-0.25 -0.617187,0 -1.132813,0.210937 -1.546875,0.625 C 8.0625,-6.691406 7.859375,-6.03125 7.859375,-5.125 V 0 h -1.5 v -5.734375 c 0,-0.664063 -0.121094,-1.164063 -0.359375,-1.5 -0.242188,-0.332031 -0.640625,-0.5 -1.203125,-0.5 -0.417969,0 -0.808594,0.117187 -1.171875,0.34375 -0.355469,0.21875 -0.617188,0.542969 -0.78125,0.96875 -0.15625,0.429687 -0.234375,1.042969 -0.234375,1.84375 V 0 Z m 0,0"
           id="path4515" />
      </g>
      <g
         id="use173"
         transform="translate(37.601456,103.42113)">
        <path
           style="stroke:none"
           d="m 7.15625,-2.84375 1.546875,0.1875 C 8.460938,-1.75 8.007812,-1.046875 7.34375,-0.546875 c -0.65625,0.5 -1.496094,0.75 -2.515625,0.75 -1.292969,0 -2.320313,-0.394531 -3.078125,-1.1875 C 1,-1.785156 0.625,-2.90625 0.625,-4.34375 c 0,-1.476562 0.378906,-2.625 1.140625,-3.4375 C 2.535156,-8.601562 3.53125,-9.015625 4.75,-9.015625 c 1.175781,0 2.132812,0.402344 2.875,1.203125 0.75,0.804688 1.125,1.933594 1.125,3.390625 0,0.085937 0,0.214844 0,0.390625 H 2.171875 c 0.050781,0.96875 0.320313,1.714844 0.8125,2.234375 0.5,0.511719 1.113281,0.765625 1.84375,0.765625 0.550781,0 1.019531,-0.140625 1.40625,-0.421875 C 6.628906,-1.742188 6.9375,-2.207031 7.15625,-2.84375 Z M 2.25,-5.265625 h 4.921875 c -0.0625,-0.738281 -0.25,-1.289063 -0.5625,-1.65625 -0.46875,-0.582031 -1.085937,-0.875 -1.84375,-0.875 -0.6875,0 -1.265625,0.230469 -1.734375,0.6875 C 2.5625,-6.648438 2.300781,-6.035156 2.25,-5.265625 Z m 0,0"
           id="path4463" />
      </g>
      <g
         id="use175"
         transform="translate(47.06213,103.42113)">
        <path
           style="stroke:none"
           d="M 1.125,0 V -8.828125 H 2.46875 V -7.5625 c 0.644531,-0.96875 1.582031,-1.453125 2.8125,-1.453125 0.53125,0 1.015625,0.09375 1.453125,0.28125 0.445313,0.1875 0.78125,0.4375 1,0.75 0.226563,0.3125 0.382813,0.683594 0.46875,1.109375 0.0625,0.273438 0.09375,0.757812 0.09375,1.453125 V 0 h -1.5 V -5.375 C 6.796875,-5.976562 6.738281,-6.429688 6.625,-6.734375 6.507812,-7.035156 6.300781,-7.273438 6,-7.453125 c -0.292969,-0.1875 -0.640625,-0.28125 -1.046875,-0.28125 -0.636719,0 -1.1875,0.203125 -1.65625,0.609375 -0.460937,0.40625 -0.6875,1.179688 -0.6875,2.3125 V 0 Z m 0,0"
           id="path4443" />
      </g>
      <g
         id="use177"
         transform="translate(56.522804,103.42113)">
        <path
           style="stroke:none"
           d="M 0.515625,-2.640625 2,-2.859375 c 0.082031,0.585937 0.3125,1.039063 0.6875,1.359375 0.382812,0.3125 0.914062,0.46875 1.59375,0.46875 0.6875,0 1.195312,-0.140625 1.53125,-0.421875 0.332031,-0.28125 0.5,-0.609375 0.5,-0.984375 0,-0.332031 -0.148438,-0.597656 -0.4375,-0.796875 -0.210938,-0.132813 -0.71875,-0.300781 -1.53125,-0.5 C 3.25,-4.015625 2.488281,-4.253906 2.0625,-4.453125 c -0.429688,-0.207031 -0.75,-0.488281 -0.96875,-0.84375 -0.21875,-0.351563 -0.328125,-0.75 -0.328125,-1.1875 0,-0.394531 0.085937,-0.757813 0.265625,-1.09375 0.1875,-0.332031 0.4375,-0.609375 0.75,-0.828125 0.226562,-0.175781 0.539062,-0.320312 0.9375,-0.4375 0.40625,-0.113281 0.835938,-0.171875 1.296875,-0.171875 0.695313,0 1.304687,0.101563 1.828125,0.296875 C 6.363281,-8.519531 6.75,-8.25 7,-7.90625 c 0.25,0.335938 0.421875,0.789062 0.515625,1.359375 L 6.0625,-6.34375 C 5.988281,-6.800781 5.789062,-7.15625 5.46875,-7.40625 5.15625,-7.664062 4.707031,-7.796875 4.125,-7.796875 c -0.6875,0 -1.179688,0.117187 -1.46875,0.34375 -0.292969,0.230469 -0.4375,0.496094 -0.4375,0.796875 0,0.199219 0.0625,0.375 0.1875,0.53125 0.113281,0.15625 0.300781,0.289062 0.5625,0.390625 0.15625,0.054687 0.597656,0.183594 1.328125,0.390625 1.050781,0.28125 1.785156,0.511719 2.203125,0.6875 0.425781,0.179688 0.753906,0.4375 0.984375,0.78125 0.238281,0.34375 0.359375,0.773438 0.359375,1.28125 0,0.5 -0.148438,0.976562 -0.4375,1.421875 -0.28125,0.4375 -0.699219,0.777344 -1.25,1.015625 -0.554688,0.2382812 -1.171875,0.359375 -1.859375,0.359375 -1.148437,0 -2.023437,-0.2382812 -2.625,-0.71875 -0.605469,-0.476563 -0.992187,-1.1875 -1.15625,-2.125 z m 0,0"
           id="path4483" />
      </g>
      <g
         id="use179"
         transform="translate(65.030602,103.42113)">
        <path
           style="stroke:none"
           d="M 1.125,-10.453125 V -12.1875 h 1.5 v 1.734375 z M 1.125,0 v -8.828125 h 1.5 V 0 Z m 0,0"
           id="path4547" />
      </g>
      <g
         id="use181"
         transform="translate(68.808067,103.42113)">
        <path
           style="stroke:none"
           d="m 0.5625,-4.40625 c 0,-1.632812 0.453125,-2.847656 1.359375,-3.640625 0.757813,-0.644531 1.6875,-0.96875 2.78125,-0.96875 1.207031,0 2.195313,0.398437 2.96875,1.1875 0.769531,0.792969 1.15625,1.890625 1.15625,3.296875 0,1.136719 -0.171875,2.03125 -0.515625,2.6875 -0.335938,0.648438 -0.828125,1.152344 -1.484375,1.515625 -0.648437,0.3515625 -1.355469,0.53125 -2.125,0.53125 -1.242187,0 -2.242187,-0.394531 -3,-1.1875 C 0.941406,-1.773438 0.5625,-2.914062 0.5625,-4.40625 Z m 1.546875,0 c 0,1.125 0.242187,1.96875 0.734375,2.53125 0.488281,0.5625 1.109375,0.84375 1.859375,0.84375 0.738281,0 1.351563,-0.28125 1.84375,-0.84375 0.5,-0.5625 0.75,-1.425781 0.75,-2.59375 0,-1.082031 -0.25,-1.90625 -0.75,-2.46875 C 6.054688,-7.5 5.441406,-7.78125 4.703125,-7.78125 c -0.75,0 -1.371094,0.28125 -1.859375,0.84375 -0.492188,0.554688 -0.734375,1.398438 -0.734375,2.53125 z m 0,0"
           id="path4431" />
      </g>
      <g
         id="use183"
         transform="translate(78.268738,103.42113)">
        <path
           style="stroke:none"
           d="M 1.125,0 V -8.828125 H 2.46875 V -7.5625 c 0.644531,-0.96875 1.582031,-1.453125 2.8125,-1.453125 0.53125,0 1.015625,0.09375 1.453125,0.28125 0.445313,0.1875 0.78125,0.4375 1,0.75 0.226563,0.3125 0.382813,0.683594 0.46875,1.109375 0.0625,0.273438 0.09375,0.757812 0.09375,1.453125 V 0 h -1.5 V -5.375 C 6.796875,-5.976562 6.738281,-6.429688 6.625,-6.734375 6.507812,-7.035156 6.300781,-7.273438 6,-7.453125 c -0.292969,-0.1875 -0.640625,-0.28125 -1.046875,-0.28125 -0.636719,0 -1.1875,0.203125 -1.65625,0.609375 -0.460937,0.40625 -0.6875,1.179688 -0.6875,2.3125 V 0 Z m 0,0"
           id="path4447" />
      </g>
    </g>
    <path
       style="fill:none;stroke:#00a432;stroke-width:1;stroke-linecap:square;stroke-linejoin:round;stroke-miterlimit:0;stroke-dasharray:none;stroke-opacity:1"
       d="M 37.229089,32.619897 H 58.205115"
       id="path6479"
       sodipodi:nodetypes="cc" />
    <path
       style="fill:none;stroke:#00a432;stroke-width:1;stroke-linecap:square;stroke-linejoin:round;stroke-miterlimit:0;stroke-dasharray:none;stroke-opacity:1"
       d="m 37.229089,55.620795 h 9.665827"
       id="path6479-3"
       sodipodi:nodetypes="cc" />
    <path
       style="fill:none;stroke:#00a432;stroke-width:1;stroke-linecap:square;stroke-linejoin:round;stroke-miterlimit:0;stroke-dasharray:none;stroke-opacity:1"
       d="m 37.230305,19.712053 31.929826,-0.07778"
       id="path6481"
       sodipodi:nodetypes="cc" />
    <path
       style="fill:none;stroke:#00a432;stroke-width:1;stroke-linecap:square;stroke-linejoin:round;stroke-miterlimit:0;stroke-dasharray:none;stroke-opacity:1"
       d="m 69.268056,20.082084 0.07778,49.610846"
       id="path6481-3"
       sodipodi:nodetypes="cc" />
    <path
       style="fill:none;stroke:#00a432;stroke-width:1;stroke-linecap:square;stroke-linejoin:round;stroke-miterlimit:0;stroke-dasharray:none;stroke-opacity:1"
       d="m 57.834049,33.130775 0.07778,36.190565"
       id="path6481-3-5"
       sodipodi:nodetypes="cc" />
    <path
       style="fill:none;stroke:#00a432;stroke-width:1;stroke-linecap:square;stroke-linejoin:round;stroke-miterlimit:0;stroke-dasharray:none;stroke-opacity:1"
       d="m 47.283133,55.197111 c 0.06171,-2.910449 0.07778,14.329489 0.07778,14.329489"
       id="path6481-3-6"
       sodipodi:nodetypes="cc" />
    <path
       style="fill:none;stroke:#423f3f;stroke-width:0.440972;stroke-linecap:square;stroke-linejoin:miter;stroke-miterlimit:10;stroke-opacity:1"
       d="M 40.807667,70.022204 H 92.794152"
       id="path3350" />
    <g
       inkscape:label=""
       transform="matrix(1.8921997,0,0,1.8921997,43.795648,72.851135)"
       id="g818">
      <g
         id="g816"
         transform="matrix(0.352778,0,0,0.352778,-0.115755,0.0414956)">
        <g
           style="fill:#000000;fill-opacity:1"
           id="g23">
          <g
             id="use21"
             transform="translate(0,5.1479998)">
            <path
               style="stroke:none"
               d="m 5.671875,-4.875 c -0.390625,0.0625 -0.53125,0.359375 -0.53125,0.578125 0,0.296875 0.21875,0.390625 0.390625,0.390625 0.359375,0 0.609375,-0.3125 0.609375,-0.640625 0,-0.5 -0.578125,-0.71875 -1.078125,-0.71875 -0.71875,0 -1.125,0.71875 -1.234375,0.9375 -0.28125,-0.890625 -1.015625,-0.9375 -1.234375,-0.9375 -1.21875,0 -1.859375,1.5625 -1.859375,1.828125 0,0.046875 0.046875,0.109375 0.125,0.109375 0.09375,0 0.125,-0.078125 0.140625,-0.125 0.40625,-1.328125 1.21875,-1.578125 1.5625,-1.578125 0.53125,0 0.640625,0.5 0.640625,0.78125 0,0.265625 -0.078125,0.546875 -0.21875,1.125 L 2.578125,-1.5 c -0.171875,0.71875 -0.515625,1.375 -1.15625,1.375 -0.0625,0 -0.359375,0 -0.609375,-0.15625 C 1.25,-0.359375 1.34375,-0.71875 1.34375,-0.859375 1.34375,-1.09375 1.15625,-1.25 0.9375,-1.25 c -0.296875,0 -0.609375,0.265625 -0.609375,0.640625 0,0.5 0.5625,0.734375 1.078125,0.734375 0.578125,0 0.984375,-0.453125 1.234375,-0.953125 C 2.828125,-0.125 3.4375,0.125 3.875,0.125 5.09375,0.125 5.734375,-1.453125 5.734375,-1.703125 5.734375,-1.765625 5.6875,-1.8125 5.625,-1.8125 5.515625,-1.8125 5.5,-1.75 5.46875,-1.65625 5.140625,-0.609375 4.453125,-0.125 3.90625,-0.125 3.484375,-0.125 3.265625,-0.4375 3.265625,-0.921875 3.265625,-1.1875 3.3125,-1.375 3.5,-2.15625 L 3.921875,-3.796875 C 4.09375,-4.5 4.5,-5.03125 5.0625,-5.03125 c 0.015625,0 0.359375,0 0.609375,0.15625 z m 0,0"
               id="path36" />
          </g>
        </g>
        <g
           clip-path="url(#clipPath1101)"
           clip-rule="nonzero"
           id="g29">
          <g
             style="fill:#000000;fill-opacity:1"
             id="g27">
            <g
               id="use25"
               transform="translate(6.652,6.941)">
              <path
                 style="stroke:none"
                 d="m 2.71875,-5.734375 c 0,-0.21875 0,-0.234375 -0.21875,-0.234375 -0.5625,0.5625 -1.390625,0.5625 -1.671875,0.5625 V -5.125 c 0.171875,0 0.71875,0 1.203125,-0.234375 v 4.640625 c 0,0.328125 -0.015625,0.4375 -0.859375,0.4375 H 0.890625 V 0 c 0.3125,-0.03125 1.125,-0.03125 1.484375,-0.03125 0.375,0 1.171875,0 1.5,0.03125 V -0.28125 H 3.59375 c -0.84375,0 -0.875,-0.109375 -0.875,-0.4375 z m 0,0"
                 id="path40" />
            </g>
          </g>
        </g>
      </g>
    </g>
    <g
       inkscape:label=""
       transform="matrix(1.8921997,0,0,1.8921997,55.242471,72.851135)"
       id="g1420">
      <g
         id="g1418"
         transform="matrix(0.352778,0,0,0.352778,-0.115755,0.0414956)">
        <g
           style="fill:#000000;fill-opacity:1"
           id="g1408">
          <g
             id="g1406"
             transform="translate(0,5.1479998)">
            <path
               style="stroke:none"
               d="m 5.671875,-4.875 c -0.390625,0.0625 -0.53125,0.359375 -0.53125,0.578125 0,0.296875 0.21875,0.390625 0.390625,0.390625 0.359375,0 0.609375,-0.3125 0.609375,-0.640625 0,-0.5 -0.578125,-0.71875 -1.078125,-0.71875 -0.71875,0 -1.125,0.71875 -1.234375,0.9375 -0.28125,-0.890625 -1.015625,-0.9375 -1.234375,-0.9375 -1.21875,0 -1.859375,1.5625 -1.859375,1.828125 0,0.046875 0.046875,0.109375 0.125,0.109375 0.09375,0 0.125,-0.078125 0.140625,-0.125 0.40625,-1.328125 1.21875,-1.578125 1.5625,-1.578125 0.53125,0 0.640625,0.5 0.640625,0.78125 0,0.265625 -0.078125,0.546875 -0.21875,1.125 L 2.578125,-1.5 c -0.171875,0.71875 -0.515625,1.375 -1.15625,1.375 -0.0625,0 -0.359375,0 -0.609375,-0.15625 C 1.25,-0.359375 1.34375,-0.71875 1.34375,-0.859375 1.34375,-1.09375 1.15625,-1.25 0.9375,-1.25 c -0.296875,0 -0.609375,0.265625 -0.609375,0.640625 0,0.5 0.5625,0.734375 1.078125,0.734375 0.578125,0 0.984375,-0.453125 1.234375,-0.953125 C 2.828125,-0.125 3.4375,0.125 3.875,0.125 5.09375,0.125 5.734375,-1.453125 5.734375,-1.703125 5.734375,-1.765625 5.6875,-1.8125 5.625,-1.8125 5.515625,-1.8125 5.5,-1.75 5.46875,-1.65625 5.140625,-0.609375 4.453125,-0.125 3.90625,-0.125 3.484375,-0.125 3.265625,-0.4375 3.265625,-0.921875 3.265625,-1.1875 3.3125,-1.375 3.5,-2.15625 L 3.921875,-3.796875 C 4.09375,-4.5 4.5,-5.03125 5.0625,-5.03125 c 0.015625,0 0.359375,0 0.609375,0.15625 z m 0,0"
               id="path1404" />
          </g>
        </g>
        <g
           clip-path="url(#clipPath1661)"
           clip-rule="nonzero"
           id="g1416">
          <g
             style="fill:#000000;fill-opacity:1"
             id="g1414">
            <g
               id="g1412"
               transform="translate(6.652,6.941)">
              <path
                 style="stroke:none"
                 d="m 4.140625,-1.59375 h -0.25 C 3.875,-1.46875 3.796875,-0.9375 3.6875,-0.796875 3.625,-0.71875 3.015625,-0.71875 2.828125,-0.71875 H 1.234375 L 2.125,-1.5625 c 1.46875,-1.265625 2.015625,-1.75 2.015625,-2.65625 0,-1.03125 -0.84375,-1.75 -1.953125,-1.75 -1.03125,0 -1.734375,0.8125 -1.734375,1.625 0,0.453125 0.390625,0.5 0.46875,0.5 0.203125,0 0.46875,-0.140625 0.46875,-0.46875 0,-0.265625 -0.1875,-0.46875 -0.46875,-0.46875 -0.046875,0 -0.0625,0 -0.109375,0.015625 C 1.03125,-5.40625 1.609375,-5.6875 2.09375,-5.6875 c 0.90625,0 1.21875,0.84375 1.21875,1.46875 0,0.90625 -0.6875,1.65625 -1.109375,2.125 L 0.5625,-0.328125 C 0.453125,-0.21875 0.453125,-0.203125 0.453125,0 h 3.4375 z m 0,0"
                 id="path1410" />
            </g>
          </g>
        </g>
      </g>
    </g>
    <g
       inkscape:label=""
       transform="matrix(1.8921997,0,0,1.8921997,67.259242,72.850999)"
       id="g1877">
      <g
         id="g1875"
         transform="matrix(0.352778,0,0,0.352778,-0.115755,0.0414956)">
        <g
           style="fill:#000000;fill-opacity:1"
           id="g1865">
          <g
             id="g1863"
             transform="translate(0,5.1479998)">
            <path
               style="stroke:none"
               d="m 5.671875,-4.875 c -0.390625,0.0625 -0.53125,0.359375 -0.53125,0.578125 0,0.296875 0.21875,0.390625 0.390625,0.390625 0.359375,0 0.609375,-0.3125 0.609375,-0.640625 0,-0.5 -0.578125,-0.71875 -1.078125,-0.71875 -0.71875,0 -1.125,0.71875 -1.234375,0.9375 -0.28125,-0.890625 -1.015625,-0.9375 -1.234375,-0.9375 -1.21875,0 -1.859375,1.5625 -1.859375,1.828125 0,0.046875 0.046875,0.109375 0.125,0.109375 0.09375,0 0.125,-0.078125 0.140625,-0.125 0.40625,-1.328125 1.21875,-1.578125 1.5625,-1.578125 0.53125,0 0.640625,0.5 0.640625,0.78125 0,0.265625 -0.078125,0.546875 -0.21875,1.125 L 2.578125,-1.5 c -0.171875,0.71875 -0.515625,1.375 -1.15625,1.375 -0.0625,0 -0.359375,0 -0.609375,-0.15625 C 1.25,-0.359375 1.34375,-0.71875 1.34375,-0.859375 1.34375,-1.09375 1.15625,-1.25 0.9375,-1.25 c -0.296875,0 -0.609375,0.265625 -0.609375,0.640625 0,0.5 0.5625,0.734375 1.078125,0.734375 0.578125,0 0.984375,-0.453125 1.234375,-0.953125 C 2.828125,-0.125 3.4375,0.125 3.875,0.125 5.09375,0.125 5.734375,-1.453125 5.734375,-1.703125 5.734375,-1.765625 5.6875,-1.8125 5.625,-1.8125 5.515625,-1.8125 5.5,-1.75 5.46875,-1.65625 5.140625,-0.609375 4.453125,-0.125 3.90625,-0.125 3.484375,-0.125 3.265625,-0.4375 3.265625,-0.921875 3.265625,-1.1875 3.3125,-1.375 3.5,-2.15625 L 3.921875,-3.796875 C 4.09375,-4.5 4.5,-5.03125 5.0625,-5.03125 c 0.015625,0 0.359375,0 0.609375,0.15625 z m 0,0"
               id="path1861" />
          </g>
        </g>
        <g
           clip-path="url(#clipPath3775)"
           clip-rule="nonzero"
           id="g1873">
          <g
             style="fill:#000000;fill-opacity:1"
             id="g1871">
            <g
               id="g1869"
               transform="translate(6.652,6.941)">
              <path
                 style="stroke:none"
                 d="M 2.734375,-3.15625 C 3.5625,-3.46875 3.96875,-4.125 3.96875,-4.75 c 0,-0.6875 -0.765625,-1.21875 -1.703125,-1.21875 -0.921875,0 -1.625,0.53125 -1.625,1.203125 0,0.296875 0.1875,0.46875 0.453125,0.46875 0.265625,0 0.453125,-0.1875 0.453125,-0.453125 0,-0.3125 -0.21875,-0.4375 -0.53125,-0.4375 C 1.25,-5.5625 1.796875,-5.75 2.25,-5.75 c 0.734375,0 0.875,0.59375 0.875,1.015625 0,0.265625 -0.046875,0.703125 -0.265625,1.046875 C 2.578125,-3.296875 2.265625,-3.28125 2,-3.25 1.78125,-3.234375 1.765625,-3.234375 1.6875,-3.234375 1.609375,-3.234375 1.53125,-3.21875 1.53125,-3.125 1.53125,-3 1.609375,-3 1.765625,-3 h 0.40625 c 0.78125,0 1.125,0.625 1.125,1.46875 0,1.15625 -0.609375,1.484375 -1.0625,1.484375 -0.171875,0 -1.046875,-0.046875 -1.4375,-0.71875 0.3125,0.046875 0.5625,-0.171875 0.5625,-0.484375 0,-0.296875 -0.21875,-0.484375 -0.484375,-0.484375 -0.21875,0 -0.484375,0.140625 -0.484375,0.515625 0,0.796875 0.828125,1.421875 1.875,1.421875 1.109375,0 1.953125,-0.8125 1.953125,-1.734375 0,-0.78125 -0.625,-1.4375 -1.484375,-1.625 z m 0,0"
                 id="path1867" />
            </g>
          </g>
        </g>
      </g>
    </g>
    <circle
       style="fill:#000000;stroke-width:1;stroke-linecap:square;stroke-linejoin:round;stroke-miterlimit:0"
       id="path1998"
       cx="47.067486"
       cy="55.510719"
       r="1.2235768" />
    <circle
       style="fill:#000000;stroke-width:1;stroke-linecap:square;stroke-linejoin:round;stroke-miterlimit:0"
       id="path1998-3"
       cx="57.734661"
       cy="32.534245"
       r="1.2235768" />
    <circle
       style="fill:#000000;stroke-width:1;stroke-linecap:square;stroke-linejoin:round;stroke-miterlimit:0"
       id="path1998-6"
       cx="69.459343"
       cy="20.40135"
       r="1.2235768" />
    <circle
       style="fill:#afafaf;stroke-width:1;stroke-linecap:square;stroke-linejoin:round;stroke-miterlimit:0;fill-opacity:1"
       id="path1998-7"
       cx="79.016655"
       cy="17.376711"
       r="1.2235768" />
    <circle
       style="fill:#afafaf;stroke-width:1;stroke-linecap:square;stroke-linejoin:round;stroke-miterlimit:0;fill-opacity:1"
       id="path1998-5"
       cx="86.234726"
       cy="16.350784"
       r="1.2235768" />
    <circle
       style="fill:#afafaf;stroke-width:1;stroke-linecap:square;stroke-linejoin:round;stroke-miterlimit:0;fill-opacity:1"
       id="path1998-35"
       cx="63.66721"
       cy="26.526747"
       r="1.2235768" />
    <circle
       style="fill:#afafaf;stroke-width:1;stroke-linecap:square;stroke-linejoin:round;stroke-miterlimit:0;fill-opacity:1"
       id="path1998-62"
       cx="51.893784"
       cy="42.704758"
       r="1.2235768" />
    <circle
       style="fill:#afafaf;stroke-width:1;stroke-linecap:square;stroke-linejoin:round;stroke-miterlimit:0;fill-opacity:1"
       id="path1998-9"
       cx="42.190292"
       cy="66.107979"
       r="1.2235768" />
    <g
       inkscape:label=""
       transform="matrix(1.8921997,0,0,1.8921997,16.94273,15.343476)"
       id="g2341">
      <g
         id="surface1"
         transform="matrix(0.352778,0,0,0.352778,-0.23151,9.7028e-4)">
        <g
           clip-path="url(#clipPath4156)"
           clip-rule="nonzero"
           id="g42">
          <g
             style="fill:#000000;fill-opacity:1"
             id="g40">
            <g
               id="use36"
               transform="translate(0,8.9659996)">
              <path
                 style="stroke:none"
                 d="m 4.96875,-7.25 c 0,-0.421875 0.03125,-0.5625 1.0625,-0.5625 h 0.359375 v -0.34375 c -0.3125,0.015625 -1.484375,0.015625 -1.875,0.015625 -0.390625,0 -1.546875,0 -1.875,-0.015625 V -7.8125 H 3 c 1.046875,0 1.0625,0.140625 1.0625,0.5625 v 5.390625 c -1.625,-0.40625 -1.65625,-2.34375 -1.65625,-3.09375 -0.015625,-1.1875 -0.375,-1.6875 -1.078125,-1.6875 H 0.9375 c -0.1875,0 -0.28125,0 -0.28125,0.125 0,0.09375 0.078125,0.109375 0.125,0.125 C 1.328125,-6.3125 1.484375,-5.8125 1.5,-4.75 c 0,1.71875 0.875,2.9375 2.5625,3.15625 v 0.671875 c 0,0.4375 -0.015625,0.578125 -1.0625,0.578125 H 2.640625 V 0 c 0.328125,-0.03125 1.484375,-0.03125 1.875,-0.03125 0.390625,0 1.5625,0 1.875,0.03125 V -0.34375 H 6.03125 C 5,-0.34375 4.96875,-0.484375 4.96875,-0.921875 V -1.59375 c 2.328125,-0.28125 2.625,-2.171875 2.640625,-3.421875 0,-0.546875 0.109375,-1.296875 0.703125,-1.375 0.0625,-0.015625 0.140625,-0.03125 0.140625,-0.125 0,-0.125 -0.09375,-0.125 -0.296875,-0.125 H 7.765625 c -0.5625,0 -1.0625,0.203125 -1.078125,1.84375 0,1.28125 -0.359375,2.625 -1.71875,2.9375 z m 0,0"
                 id="path63" />
            </g>
            <g
               id="use38"
               transform="translate(9.1050797,8.9659996)">
              <path
                 style="stroke:none"
                 d="m 3.890625,2.90625 c 0,-0.03125 0,-0.0625 -0.203125,-0.265625 C 2.484375,1.4375 1.8125,-0.53125 1.8125,-2.96875 c 0,-2.328125 0.5625,-4.328125 1.953125,-5.734375 0.125,-0.109375 0.125,-0.125 0.125,-0.171875 0,-0.0625 -0.0625,-0.09375 -0.109375,-0.09375 -0.15625,0 -1.140625,0.859375 -1.71875,2.03125 -0.609375,1.21875 -0.890625,2.484375 -0.890625,3.96875 0,1.0625 0.171875,2.484375 0.78125,3.75 C 2.671875,2.21875 3.640625,3 3.78125,3 3.828125,3 3.890625,2.96875 3.890625,2.90625 Z m 0,0"
                 id="path67" />
            </g>
          </g>
        </g>
        <g
           style="fill:#000000;fill-opacity:1"
           id="g46">
          <g
             id="use44"
             transform="translate(13.657,8.9659996)">
            <path
               style="stroke:none"
               d="m 5.671875,-4.875 c -0.390625,0.0625 -0.53125,0.359375 -0.53125,0.578125 0,0.296875 0.21875,0.390625 0.390625,0.390625 0.359375,0 0.609375,-0.3125 0.609375,-0.640625 0,-0.5 -0.578125,-0.71875 -1.078125,-0.71875 -0.71875,0 -1.125,0.71875 -1.234375,0.9375 -0.28125,-0.890625 -1.015625,-0.9375 -1.234375,-0.9375 -1.21875,0 -1.859375,1.5625 -1.859375,1.828125 0,0.046875 0.046875,0.109375 0.125,0.109375 0.09375,0 0.125,-0.078125 0.140625,-0.125 0.40625,-1.328125 1.21875,-1.578125 1.5625,-1.578125 0.53125,0 0.640625,0.5 0.640625,0.78125 0,0.265625 -0.078125,0.546875 -0.21875,1.125 L 2.578125,-1.5 c -0.171875,0.71875 -0.515625,1.375 -1.15625,1.375 -0.0625,0 -0.359375,0 -0.609375,-0.15625 C 1.25,-0.359375 1.34375,-0.71875 1.34375,-0.859375 1.34375,-1.09375 1.15625,-1.25 0.9375,-1.25 c -0.296875,0 -0.609375,0.265625 -0.609375,0.640625 0,0.5 0.5625,0.734375 1.078125,0.734375 0.578125,0 0.984375,-0.453125 1.234375,-0.953125 C 2.828125,-0.125 3.4375,0.125 3.875,0.125 5.09375,0.125 5.734375,-1.453125 5.734375,-1.703125 5.734375,-1.765625 5.6875,-1.8125 5.625,-1.8125 5.515625,-1.8125 5.5,-1.75 5.46875,-1.65625 5.140625,-0.609375 4.453125,-0.125 3.90625,-0.125 3.484375,-0.125 3.265625,-0.4375 3.265625,-0.921875 3.265625,-1.1875 3.3125,-1.375 3.5,-2.15625 L 3.921875,-3.796875 C 4.09375,-4.5 4.5,-5.03125 5.0625,-5.03125 c 0.015625,0 0.359375,0 0.609375,0.15625 z m 0,0"
               id="path71" />
          </g>
        </g>
        <g
           style="fill:#000000;fill-opacity:1"
           id="g50">
          <g
             id="use48"
             transform="translate(20.309,10.759)">
            <path
               style="stroke:none"
               d="M 2.734375,-3.15625 C 3.5625,-3.46875 3.96875,-4.125 3.96875,-4.75 c 0,-0.6875 -0.765625,-1.21875 -1.703125,-1.21875 -0.921875,0 -1.625,0.53125 -1.625,1.203125 0,0.296875 0.1875,0.46875 0.453125,0.46875 0.265625,0 0.453125,-0.1875 0.453125,-0.453125 0,-0.3125 -0.21875,-0.4375 -0.53125,-0.4375 C 1.25,-5.5625 1.796875,-5.75 2.25,-5.75 c 0.734375,0 0.875,0.59375 0.875,1.015625 0,0.265625 -0.046875,0.703125 -0.265625,1.046875 C 2.578125,-3.296875 2.265625,-3.28125 2,-3.25 1.78125,-3.234375 1.765625,-3.234375 1.6875,-3.234375 1.609375,-3.234375 1.53125,-3.21875 1.53125,-3.125 1.53125,-3 1.609375,-3 1.765625,-3 h 0.40625 c 0.78125,0 1.125,0.625 1.125,1.46875 0,1.15625 -0.609375,1.484375 -1.0625,1.484375 -0.171875,0 -1.046875,-0.046875 -1.4375,-0.71875 0.3125,0.046875 0.5625,-0.171875 0.5625,-0.484375 0,-0.296875 -0.21875,-0.484375 -0.484375,-0.484375 -0.21875,0 -0.484375,0.140625 -0.484375,0.515625 0,0.796875 0.828125,1.421875 1.875,1.421875 1.109375,0 1.953125,-0.8125 1.953125,-1.734375 0,-0.78125 -0.625,-1.4375 -1.484375,-1.625 z m 0,0"
               id="path75" />
          </g>
        </g>
        <g
           clip-path="url(#clipPath2805)"
           clip-rule="nonzero"
           id="g56">
          <g
             style="fill:#000000;fill-opacity:1"
             id="g54">
            <g
               id="use52"
               transform="translate(25.415001,8.9659996)">
              <path
                 style="stroke:none"
                 d="M 3.375,-2.96875 C 3.375,-3.890625 3.25,-5.359375 2.578125,-6.75 1.875,-8.1875 0.890625,-8.96875 0.765625,-8.96875 c -0.046875,0 -0.109375,0.03125 -0.109375,0.09375 0,0.046875 0,0.0625 0.203125,0.265625 1.203125,1.203125 1.859375,3.1875 1.859375,5.625 0,2.3125 -0.5625,4.3125 -1.9375,5.71875 C 0.65625,2.84375 0.65625,2.875 0.65625,2.90625 0.65625,2.96875 0.71875,3 0.765625,3 0.921875,3 1.90625,2.140625 2.484375,0.96875 3.09375,-0.25 3.375,-1.546875 3.375,-2.96875 Z m 0,0"
                 id="path79" />
            </g>
          </g>
        </g>
      </g>
    </g>
    <g
       inkscape:label=""
       transform="matrix(1.8921997,0,0,1.8921997,16.481838,29.214957)"
       id="g2769">
      <g
         id="g2767"
         transform="matrix(0.352778,0,0,0.352778,-0.23151,9.7028e-4)">
        <g
           clip-path="url(#clipPath9710)"
           clip-rule="nonzero"
           id="g2745">
          <g
             style="fill:#000000;fill-opacity:1"
             id="g2743">
            <g
               id="g2737"
               transform="translate(0,8.9659996)">
              <path
                 style="stroke:none"
                 d="m 4.96875,-7.25 c 0,-0.421875 0.03125,-0.5625 1.0625,-0.5625 h 0.359375 v -0.34375 c -0.3125,0.015625 -1.484375,0.015625 -1.875,0.015625 -0.390625,0 -1.546875,0 -1.875,-0.015625 V -7.8125 H 3 c 1.046875,0 1.0625,0.140625 1.0625,0.5625 v 5.390625 c -1.625,-0.40625 -1.65625,-2.34375 -1.65625,-3.09375 -0.015625,-1.1875 -0.375,-1.6875 -1.078125,-1.6875 H 0.9375 c -0.1875,0 -0.28125,0 -0.28125,0.125 0,0.09375 0.078125,0.109375 0.125,0.125 C 1.328125,-6.3125 1.484375,-5.8125 1.5,-4.75 c 0,1.71875 0.875,2.9375 2.5625,3.15625 v 0.671875 c 0,0.4375 -0.015625,0.578125 -1.0625,0.578125 H 2.640625 V 0 c 0.328125,-0.03125 1.484375,-0.03125 1.875,-0.03125 0.390625,0 1.5625,0 1.875,0.03125 V -0.34375 H 6.03125 C 5,-0.34375 4.96875,-0.484375 4.96875,-0.921875 V -1.59375 c 2.328125,-0.28125 2.625,-2.171875 2.640625,-3.421875 0,-0.546875 0.109375,-1.296875 0.703125,-1.375 0.0625,-0.015625 0.140625,-0.03125 0.140625,-0.125 0,-0.125 -0.09375,-0.125 -0.296875,-0.125 H 7.765625 c -0.5625,0 -1.0625,0.203125 -1.078125,1.84375 0,1.28125 -0.359375,2.625 -1.71875,2.9375 z m 0,0"
                 id="path2735" />
            </g>
            <g
               id="g2741"
               transform="translate(9.1050797,8.9659996)">
              <path
                 style="stroke:none"
                 d="m 3.890625,2.90625 c 0,-0.03125 0,-0.0625 -0.203125,-0.265625 C 2.484375,1.4375 1.8125,-0.53125 1.8125,-2.96875 c 0,-2.328125 0.5625,-4.328125 1.953125,-5.734375 0.125,-0.109375 0.125,-0.125 0.125,-0.171875 0,-0.0625 -0.0625,-0.09375 -0.109375,-0.09375 -0.15625,0 -1.140625,0.859375 -1.71875,2.03125 -0.609375,1.21875 -0.890625,2.484375 -0.890625,3.96875 0,1.0625 0.171875,2.484375 0.78125,3.75 C 2.671875,2.21875 3.640625,3 3.78125,3 3.828125,3 3.890625,2.96875 3.890625,2.90625 Z m 0,0"
                 id="path2739" />
            </g>
          </g>
        </g>
        <g
           style="fill:#000000;fill-opacity:1"
           id="g2751">
          <g
             id="g2749"
             transform="translate(13.657,8.9659996)">
            <path
               style="stroke:none"
               d="m 5.671875,-4.875 c -0.390625,0.0625 -0.53125,0.359375 -0.53125,0.578125 0,0.296875 0.21875,0.390625 0.390625,0.390625 0.359375,0 0.609375,-0.3125 0.609375,-0.640625 0,-0.5 -0.578125,-0.71875 -1.078125,-0.71875 -0.71875,0 -1.125,0.71875 -1.234375,0.9375 -0.28125,-0.890625 -1.015625,-0.9375 -1.234375,-0.9375 -1.21875,0 -1.859375,1.5625 -1.859375,1.828125 0,0.046875 0.046875,0.109375 0.125,0.109375 0.09375,0 0.125,-0.078125 0.140625,-0.125 0.40625,-1.328125 1.21875,-1.578125 1.5625,-1.578125 0.53125,0 0.640625,0.5 0.640625,0.78125 0,0.265625 -0.078125,0.546875 -0.21875,1.125 L 2.578125,-1.5 c -0.171875,0.71875 -0.515625,1.375 -1.15625,1.375 -0.0625,0 -0.359375,0 -0.609375,-0.15625 C 1.25,-0.359375 1.34375,-0.71875 1.34375,-0.859375 1.34375,-1.09375 1.15625,-1.25 0.9375,-1.25 c -0.296875,0 -0.609375,0.265625 -0.609375,0.640625 0,0.5 0.5625,0.734375 1.078125,0.734375 0.578125,0 0.984375,-0.453125 1.234375,-0.953125 C 2.828125,-0.125 3.4375,0.125 3.875,0.125 5.09375,0.125 5.734375,-1.453125 5.734375,-1.703125 5.734375,-1.765625 5.6875,-1.8125 5.625,-1.8125 5.515625,-1.8125 5.5,-1.75 5.46875,-1.65625 5.140625,-0.609375 4.453125,-0.125 3.90625,-0.125 3.484375,-0.125 3.265625,-0.4375 3.265625,-0.921875 3.265625,-1.1875 3.3125,-1.375 3.5,-2.15625 L 3.921875,-3.796875 C 4.09375,-4.5 4.5,-5.03125 5.0625,-5.03125 c 0.015625,0 0.359375,0 0.609375,0.15625 z m 0,0"
               id="path2747" />
          </g>
        </g>
        <g
           style="fill:#000000;fill-opacity:1"
           id="g2757">
          <g
             id="g2755"
             transform="translate(20.309,10.759)">
            <path
               style="stroke:none"
               d="m 4.140625,-1.59375 h -0.25 C 3.875,-1.46875 3.796875,-0.9375 3.6875,-0.796875 3.625,-0.71875 3.015625,-0.71875 2.828125,-0.71875 H 1.234375 L 2.125,-1.5625 c 1.46875,-1.265625 2.015625,-1.75 2.015625,-2.65625 0,-1.03125 -0.84375,-1.75 -1.953125,-1.75 -1.03125,0 -1.734375,0.8125 -1.734375,1.625 0,0.453125 0.390625,0.5 0.46875,0.5 0.203125,0 0.46875,-0.140625 0.46875,-0.46875 0,-0.265625 -0.1875,-0.46875 -0.46875,-0.46875 -0.046875,0 -0.0625,0 -0.109375,0.015625 C 1.03125,-5.40625 1.609375,-5.6875 2.09375,-5.6875 c 0.90625,0 1.21875,0.84375 1.21875,1.46875 0,0.90625 -0.6875,1.65625 -1.109375,2.125 L 0.5625,-0.328125 C 0.453125,-0.21875 0.453125,-0.203125 0.453125,0 h 3.4375 z m 0,0"
               id="path2753" />
          </g>
        </g>
        <g
           clip-path="url(#clipPath2065)"
           clip-rule="nonzero"
           id="g2765">
          <g
             style="fill:#000000;fill-opacity:1"
             id="g2763">
            <g
               id="g2761"
               transform="translate(25.415001,8.9659996)">
              <path
                 style="stroke:none"
                 d="M 3.375,-2.96875 C 3.375,-3.890625 3.25,-5.359375 2.578125,-6.75 1.875,-8.1875 0.890625,-8.96875 0.765625,-8.96875 c -0.046875,0 -0.109375,0.03125 -0.109375,0.09375 0,0.046875 0,0.0625 0.203125,0.265625 1.203125,1.203125 1.859375,3.1875 1.859375,5.625 0,2.3125 -0.5625,4.3125 -1.9375,5.71875 C 0.65625,2.84375 0.65625,2.875 0.65625,2.90625 0.65625,2.96875 0.71875,3 0.765625,3 0.921875,3 1.90625,2.140625 2.484375,0.96875 3.09375,-0.25 3.375,-1.546875 3.375,-2.96875 Z m 0,0"
                 id="path2759" />
            </g>
          </g>
        </g>
      </g>
    </g>
    <g
       inkscape:label=""
       transform="matrix(1.8921997,0,0,1.8921997,16.785147,51.197305)"
       id="g3241">
      <g
         id="g3239"
         transform="matrix(0.352778,0,0,0.352778,-0.23151,9.7028e-4)">
        <g
           clip-path="url(#clipPath8451)"
           clip-rule="nonzero"
           id="g3217">
          <g
             style="fill:#000000;fill-opacity:1"
             id="g3215">
            <g
               id="g3209"
               transform="translate(0,8.9659996)">
              <path
                 style="stroke:none"
                 d="m 4.96875,-7.25 c 0,-0.421875 0.03125,-0.5625 1.0625,-0.5625 h 0.359375 v -0.34375 c -0.3125,0.015625 -1.484375,0.015625 -1.875,0.015625 -0.390625,0 -1.546875,0 -1.875,-0.015625 V -7.8125 H 3 c 1.046875,0 1.0625,0.140625 1.0625,0.5625 v 5.390625 c -1.625,-0.40625 -1.65625,-2.34375 -1.65625,-3.09375 -0.015625,-1.1875 -0.375,-1.6875 -1.078125,-1.6875 H 0.9375 c -0.1875,0 -0.28125,0 -0.28125,0.125 0,0.09375 0.078125,0.109375 0.125,0.125 C 1.328125,-6.3125 1.484375,-5.8125 1.5,-4.75 c 0,1.71875 0.875,2.9375 2.5625,3.15625 v 0.671875 c 0,0.4375 -0.015625,0.578125 -1.0625,0.578125 H 2.640625 V 0 c 0.328125,-0.03125 1.484375,-0.03125 1.875,-0.03125 0.390625,0 1.5625,0 1.875,0.03125 V -0.34375 H 6.03125 C 5,-0.34375 4.96875,-0.484375 4.96875,-0.921875 V -1.59375 c 2.328125,-0.28125 2.625,-2.171875 2.640625,-3.421875 0,-0.546875 0.109375,-1.296875 0.703125,-1.375 0.0625,-0.015625 0.140625,-0.03125 0.140625,-0.125 0,-0.125 -0.09375,-0.125 -0.296875,-0.125 H 7.765625 c -0.5625,0 -1.0625,0.203125 -1.078125,1.84375 0,1.28125 -0.359375,2.625 -1.71875,2.9375 z m 0,0"
                 id="path3207" />
            </g>
            <g
               id="g3213"
               transform="translate(9.1050797,8.9659996)">
              <path
                 style="stroke:none"
                 d="m 3.890625,2.90625 c 0,-0.03125 0,-0.0625 -0.203125,-0.265625 C 2.484375,1.4375 1.8125,-0.53125 1.8125,-2.96875 c 0,-2.328125 0.5625,-4.328125 1.953125,-5.734375 0.125,-0.109375 0.125,-0.125 0.125,-0.171875 0,-0.0625 -0.0625,-0.09375 -0.109375,-0.09375 -0.15625,0 -1.140625,0.859375 -1.71875,2.03125 -0.609375,1.21875 -0.890625,2.484375 -0.890625,3.96875 0,1.0625 0.171875,2.484375 0.78125,3.75 C 2.671875,2.21875 3.640625,3 3.78125,3 3.828125,3 3.890625,2.96875 3.890625,2.90625 Z m 0,0"
                 id="path3211" />
            </g>
          </g>
        </g>
        <g
           style="fill:#000000;fill-opacity:1"
           id="g3223">
          <g
             id="g3221"
             transform="translate(13.657,8.9659996)">
            <path
               style="stroke:none"
               d="m 5.671875,-4.875 c -0.390625,0.0625 -0.53125,0.359375 -0.53125,0.578125 0,0.296875 0.21875,0.390625 0.390625,0.390625 0.359375,0 0.609375,-0.3125 0.609375,-0.640625 0,-0.5 -0.578125,-0.71875 -1.078125,-0.71875 -0.71875,0 -1.125,0.71875 -1.234375,0.9375 -0.28125,-0.890625 -1.015625,-0.9375 -1.234375,-0.9375 -1.21875,0 -1.859375,1.5625 -1.859375,1.828125 0,0.046875 0.046875,0.109375 0.125,0.109375 0.09375,0 0.125,-0.078125 0.140625,-0.125 0.40625,-1.328125 1.21875,-1.578125 1.5625,-1.578125 0.53125,0 0.640625,0.5 0.640625,0.78125 0,0.265625 -0.078125,0.546875 -0.21875,1.125 L 2.578125,-1.5 c -0.171875,0.71875 -0.515625,1.375 -1.15625,1.375 -0.0625,0 -0.359375,0 -0.609375,-0.15625 C 1.25,-0.359375 1.34375,-0.71875 1.34375,-0.859375 1.34375,-1.09375 1.15625,-1.25 0.9375,-1.25 c -0.296875,0 -0.609375,0.265625 -0.609375,0.640625 0,0.5 0.5625,0.734375 1.078125,0.734375 0.578125,0 0.984375,-0.453125 1.234375,-0.953125 C 2.828125,-0.125 3.4375,0.125 3.875,0.125 5.09375,0.125 5.734375,-1.453125 5.734375,-1.703125 5.734375,-1.765625 5.6875,-1.8125 5.625,-1.8125 5.515625,-1.8125 5.5,-1.75 5.46875,-1.65625 5.140625,-0.609375 4.453125,-0.125 3.90625,-0.125 3.484375,-0.125 3.265625,-0.4375 3.265625,-0.921875 3.265625,-1.1875 3.3125,-1.375 3.5,-2.15625 L 3.921875,-3.796875 C 4.09375,-4.5 4.5,-5.03125 5.0625,-5.03125 c 0.015625,0 0.359375,0 0.609375,0.15625 z m 0,0"
               id="path3219" />
          </g>
        </g>
        <g
           style="fill:#000000;fill-opacity:1"
           id="g3229">
          <g
             id="g3227"
             transform="translate(20.309,10.759)">
            <path
               style="stroke:none"
               d="m 2.71875,-5.734375 c 0,-0.21875 0,-0.234375 -0.21875,-0.234375 -0.5625,0.5625 -1.390625,0.5625 -1.671875,0.5625 V -5.125 c 0.171875,0 0.71875,0 1.203125,-0.234375 v 4.640625 c 0,0.328125 -0.015625,0.4375 -0.859375,0.4375 H 0.890625 V 0 c 0.3125,-0.03125 1.125,-0.03125 1.484375,-0.03125 0.375,0 1.171875,0 1.5,0.03125 V -0.28125 H 3.59375 c -0.84375,0 -0.875,-0.109375 -0.875,-0.4375 z m 0,0"
               id="path3225" />
          </g>
        </g>
        <g
           clip-path="url(#clipPath7606)"
           clip-rule="nonzero"
           id="g3237">
          <g
             style="fill:#000000;fill-opacity:1"
             id="g3235">
            <g
               id="g3233"
               transform="translate(25.415001,8.9659996)">
              <path
                 style="stroke:none"
                 d="M 3.375,-2.96875 C 3.375,-3.890625 3.25,-5.359375 2.578125,-6.75 1.875,-8.1875 0.890625,-8.96875 0.765625,-8.96875 c -0.046875,0 -0.109375,0.03125 -0.109375,0.09375 0,0.046875 0,0.0625 0.203125,0.265625 1.203125,1.203125 1.859375,3.1875 1.859375,5.625 0,2.3125 -0.5625,4.3125 -1.9375,5.71875 C 0.65625,2.84375 0.65625,2.875 0.65625,2.90625 0.65625,2.96875 0.71875,3 0.765625,3 0.921875,3 1.90625,2.140625 2.484375,0.96875 3.09375,-0.25 3.375,-1.546875 3.375,-2.96875 Z m 0,0"
                 id="path3231" />
            </g>
          </g>
        </g>
      </g>
    </g>
    <path
       style="fill:#868686;fill-opacity:1;stroke:#000000;stroke-width:0.4;stroke-linecap:square;stroke-linejoin:round;stroke-miterlimit:0;stroke-dasharray:none;stroke-opacity:1;marker-start:url(#TriangleStart);marker-end:url(#marker4410)"
       d="m 71.943025,16.66907 v 6.727379"
       id="path4380" />
    <path
       style="fill:#868686;fill-opacity:1;stroke:#000000;stroke-width:0.4;stroke-linecap:square;stroke-linejoin:round;stroke-miterlimit:0;stroke-dasharray:none;stroke-opacity:1;marker-start:url(#TriangleStart-1);marker-end:url(#marker4410-7)"
       d="m 60.368604,28.540372 v 6.727379"
       id="path4380-9" />
    <path
       style="fill:#868686;fill-opacity:1;stroke:#000000;stroke-width:0.4;stroke-linecap:square;stroke-linejoin:round;stroke-miterlimit:0;stroke-dasharray:none;stroke-opacity:1;marker-start:url(#TriangleStart-3);marker-end:url(#marker4410-0)"
       d="m 49.309967,51.907453 v 6.727379"
       id="path4380-2" />
  </g>
</svg>
